**ABCDEFGHIJKLMNOPQRSTUVWXYZabcdefghijklmnopqrstuvwxyz**************************
**PARASOLID !"#$%&'()*+,-./:;<=>?@[\]^_`{|}~0123456789**************************
**PART1;
MC=unknown;
MC_MODEL=unknown;
MC_ID=unknown;
OS=iOS;
OS_RELEASE=unknown;
FRU=Shapr3D Zrt.;
APPL=Shapr3D;
SITE=Budapest, Hungary;
USER=unknown;
FORMAT=text;
GUISE=transmit;
KEY=/private/var/mobile/Containers/Data/Application/E2818F9A-2C52-4D1E-8716-1328FA984AC9/tmp/export/temp_export;
FILE=/private/var/mobile/Containers/Data/Application/E2818F9A-2C52-4D1E-8716-1328FA984AC9/tmp/export/temp_export;
DATE=2022-09-03 23:40 (UTC);
**PART2;
SCH=SCH_3401153_34101;
USFLD_SIZE=16;
**PART3;
**END_OF_HEADER*****************************************************************
T51 : TRANSMIT FILE created by modeller version 340115323 SCH_3401153_34101_1300
6231 0 10 21 CCCCI7 lattice222 0 CCCI4 mesh1006 0 I8 polyline1008 0 CCCCCCCCCCA1
6 mesh_offset_data206 0 Z1 3 2 3 0 0 0 0 0 0 0 0 1e3 1e-8 0 0 4 1 0 1 5 0 81 255
 1 2 2 6 1 7 0 0 0 8 70 11 CI9 list_type0 0 1 uI10 notransmit0 0 1 lCCCDCCDI12 f
inger_index0 0 1 dI12 finger_block1012 0 CZ3 0 4 T1 0 0 2 20 1 9 9 11 255 5 3 0
 1 4 0 1 0 0 0 0 10 4 3 10 11 0 0 0 0 0 0 0 0 1e3 1e-8 5 1 0 1 0 1 12 0 81 1 10
 2 6 4 13 0 0 0 14 70 11 0 4 T4 0 0 2 20 1 15 15 11 12 3 0 1 16 0 4 0 0 0 0 12 3
6 CCCI7 lattice222 0 CCCI4 mesh1006 0 I8 polyline1008 0 CCCCCCCDI5 owner1040 0 C
CCI16 boundary_lattice222 0 CCCI13 boundary_mesh1006 0 I17 boundary_polyline1008
 0 CCCA16 index_map_offset0 0 1 dA9 index_map82 0 A17 node_id_index_map82 0 A20
 schema_embedding_map82 0 A5 child12 0 A14 lowest_node_id0 0 1 dA16 mesh_offset_
data206 0 Z16 88 17 18 0 0 0 0 0 0 0 1e3 1e-8 12 0 0 1 0 1 1 19 0 20 21 0 0 0 22
 23 0 0 0 0 0 0 0 0 81 1 17 80 6 16 24 0 0 0 25 70 18 0 4 T16 0 0 5 20 1 26 26 1
3 255 19 23 0 16 0 27 0 0 28 0 50 255 20 76 0 27 29 0 0 +0 0 .1679 0 0 1 1 0 0 3
1 255 21 78 0 30 31 0 0 +0 0 .1679 0 0 1 1 0 0 .008 19 9 CCCCCCI5 frame230 0 CA5
 owner12 0 Z22 21 0 16 28 0 32 0 V0 16 255 23 14 0 ?33 0 34 35 0 0 16 17 255 33
 0 36 33 33 0 37 23 0 0 +16 34 12 0 ?38 23 30 39 0 0 16 31 35 61 0 23 39 31 0 +0
 0 0 0 0 1 1 0 0 .008 31 39 60 0 34 0 35 0 +0 0 0 0 0 1 1 0 0 .009 31 31 77 0 40
 35 21 0 +0 0 .1679 0 0 1 1 0 0 .009 16 40 7 0 ?41 30 0 31 0 0 16 17 41 0 42 41
 41 0 43 40 0 0 +16 30 9 0 ?44 34 40 21 0 0 16 17 44 0 45 44 44 0 46 30 0 0 +15
 255 45 19 0 44 47 48 17 46 0 49 46 46 0 44 30 0 0 -15 49 8 0 46 27 0 14 255 27
 5 50 ?51 0 42 19 20 +0 0 51 0 32 81 1 50 82 52 27 53 0 0 54 55 14 51 10 54 ?56
 27 57 19 58 -0 0 56 27 32 15 42 6 0 41 27 49 13 32 4 0 0 0 0 0 0 22 27 81 1 54
 84 52 51 59 0 50 60 61 14 56 15 60 ?47 51 62 19 63 +0 0 47 51 32 15 57 11 0 64
 51 36 50 58 43 0 51 0 63 0 +0 0 0 0 0 1 1 0 0 51 255 63 48 0 56 58 29 0 +0 0 .1
65 0 0 -1 .009 -1 0 0 51 29 53 0 47 63 20 0 +0 0 .165 0 0 -1 .008 -1 0 0 14 47 1
8 65 ?0 56 45 19 29 -0 0 0 56 32 81 1 65 88 52 47 66 0 60 0 67 80 7 CCCCCDI12 le
gal_owners0 16 1 lCZ1 52 68 69 8015 0 0 0 0 3 5 0 0 0 FFFFTFFFFFFFFFFF2 81 1 66
 87 70 47 71 65 72 0 73 81 1 60 86 52 56 72 0 54 65 74 83 255 1 67 0 81 1 72 85
 70 56 75 60 59 66 76 83 1 74 0 80 1 70 0 77 8001 0 0 0 0 3 5 0 0 0 FFFFTFTFFFFF
FFFF2 81 1 75 66 78 56 0 72 79 71 80 81 1 59 83 70 51 81 54 53 72 82 83 3 76 .07
84313725490196 .0784313725490196 .0784313725490196 81 1 81 68 78 51 0 59 71 83 8
4 81 1 53 81 70 27 83 50 0 59 85 83 3 82 .0784313725490196 .0784313725490196 .07
84313725490196 81 1 83 69 78 27 0 53 81 0 86 83 3 85 .0784313725490196 .07843137
25490196 .0784313725490196 80 1 78 87 88 9000 0 0 0 0 3 6 0 0 0 TFTTTTTTFFFFTTFF
3 84 255 13 86 {65}@1b@{1;1}79 255 25 88 H3DX_BRIDGE/PERSISTENT_ID81 1 71 67 78
 47 0 66 75 81 89 84 13 84 {65}@1b@{0;1}84 11 89 {65}@1b@{2}81 1 79 65 78 16 0 2
4 0 75 90 84 11 80 {65}@1b@{1}81 1 24 79 91 16 79 17 0 0 92 84 3 90 10180 1 91 9
3 94 8017 0 0 0 0 0 0 0 0 0 TTTTTTTTTTTTTFTF3 84 11 92 Imported 0179 13 94 SDL/T
YSA_NAME79 15 77 SDL/TYSA_COLOUR83 3 73 .0784313725490196 .0784313725490196 .078
4313725490196 79 21 69 SDL/TYSA_TRANSLUCENCY17 64 0 57 64 64 0 38 34 0 0 -15 36
 13 0 33 51 0 17 38 0 95 38 38 0 64 34 0 0 +15 95 17 0 38 56 0 15 62 16 0 43 56
 95 17 43 0 62 43 43 0 41 40 0 0 -83 1 61 0 83 1 55 0 15 48 20 0 37 47 0 17 37 0
 48 37 37 0 33 23 0 0 -19 28 22 0 16 0 22 19 0 S0 74 4 CI16 index_map_offset0 0
 1 dCCZ20 26 5 0 0 83 24 17 66 65 0 0 0 0 0 0 0 0 0 0 0 0 0 0 0 80 1 6 91 96 803
8 0 0 0 0 0 0 0 0 0 TTTTTTTTTTTTTFTF10 98 255 11 25 73 109 112 111 114 116 101 1
00 32 48 49 79 14 96 SDL/TYSA_UNAME74 20 15 2 0 0 13 10 0 0 0 0 0 0 0 0 0 0 0 0
 0 0 0 0 0 0 81 1 13 1 91 4 0 10 0 0 97 84 13 97 CF Arm.SLDPRT98 13 14 67 70 32
 65 114 109 46 83 76 68 80 82 84 74 20 9 2 0 0 7 2 0 0 0 0 0 0 0 0 0 0 0 0 0 0 0
 0 0 0 81 1 7 1 91 1 0 2 0 0 98 84 4 98 root98 4 8 114 111 111 116 1 0 
