**ABCDEFGHIJKLMNOPQRSTUVWXYZabcdefghijklmnopqrstuvwxyz**************************
**PARASOLID !"#$%&'()*+,-./:;<=>?@[\]^_`{|}~0123456789**************************
**PART1;
MC=unknown;
MC_MODEL=unknown;
MC_ID=unknown;
OS=iOS;
OS_RELEASE=unknown;
FRU=Shapr3D Zrt.;
APPL=Shapr3D;
SITE=Budapest, Hungary;
USER=unknown;
FORMAT=text;
GUISE=transmit;
KEY=/private/var/mobile/Containers/Data/Application/E2818F9A-2C52-4D1E-8716-1328FA984AC9/tmp/export/temp_export;
FILE=/private/var/mobile/Containers/Data/Application/E2818F9A-2C52-4D1E-8716-1328FA984AC9/tmp/export/temp_export;
DATE=2022-09-03 23:46 (UTC);
**PART2;
SCH=SCH_3401153_34101;
USFLD_SIZE=16;
**PART3;
**END_OF_HEADER*****************************************************************
T51 : TRANSMIT FILE created by modeller version 340115323 SCH_3401153_34101_1300
6231 0 10 21 CCCCI7 lattice222 0 CCCI4 mesh1006 0 I8 polyline1008 0 CCCCCCCCCCA1
6 mesh_offset_data206 0 Z1 3 2 3 0 0 0 0 0 0 0 0 1e3 1e-8 0 0 4 1 0 1 5 0 81 255
 1 2 2 6 1 7 0 0 0 8 70 11 CI9 list_type0 0 1 uI10 notransmit0 0 1 lCCCDCCDI12 f
inger_index0 0 1 dI12 finger_block1012 0 CZ3 0 4 T1 0 0 2 20 1 9 9 11 255 5 3 0
 1 4 0 1 0 0 0 0 10 4 3 10 11 0 0 0 0 0 0 0 0 1e3 1e-8 5 1 0 1 0 1 12 0 81 1 10
 2 6 4 13 0 0 0 14 70 11 0 4 T4 0 0 2 20 1 15 15 11 12 3 0 1 16 0 4 0 0 0 0 12 3
6 CCCI7 lattice222 0 CCCI4 mesh1006 0 I8 polyline1008 0 CCCCCCCDI5 owner1040 0 C
CCI16 boundary_lattice222 0 CCCI13 boundary_mesh1006 0 I17 boundary_polyline1008
 0 CCCA16 index_map_offset0 0 1 dA9 index_map82 0 A17 node_id_index_map82 0 A20
 schema_embedding_map82 0 A5 child12 0 A14 lowest_node_id0 0 1 dA16 mesh_offset_
data206 0 Z16 83 17 18 0 0 0 0 0 0 0 1e3 1e-8 12 0 0 1 0 1 1 19 0 20 21 0 0 0 22
 23 0 0 0 0 0 0 0 0 81 1 17 75 6 16 24 0 0 0 25 70 18 0 4 T16 0 0 5 20 1 26 26 1
3 255 19 23 0 16 0 27 0 0 28 0 51 255 20 53 0 29 30 0 0 +0 0 .25 0 0 -1 .004 -1
 0 0 31 255 21 61 0 23 31 0 0 +0 0 0 0 0 1 1 0 0 .004 19 9 CCCCCCI5 frame230 0 C
A5 owner12 0 Z22 21 0 16 28 0 32 0 V0 16 255 23 14 0 ?33 0 34 21 0 0 16 17 255 3
3 0 35 33 33 0 36 23 0 0 +16 34 12 0 ?37 23 38 31 0 0 16 17 37 0 39 37 37 0 40 3
4 0 0 +16 38 9 0 ?41 34 42 43 0 0 16 31 31 60 0 34 43 21 0 +0 0 0 0 0 1 1 0 0 .0
05 31 43 59 0 38 44 31 0 +0 0 .25 0 0 1 1 0 0 .004 31 44 58 0 42 0 43 0 +0 0 .25
 0 0 1 1 0 0 .005 16 42 7 0 ?45 38 0 44 0 0 16 17 45 0 46 45 45 0 47 42 0 0 +15
 255 46 6 0 45 27 48 17 47 0 49 47 47 0 45 42 0 0 -15 49 16 0 47 50 39 14 255 50
 15 51 ?29 52 49 19 30 +0 0 29 52 32 15 39 17 0 37 50 0 81 1 51 81 53 50 54 0 55
 56 57 14 29 18 56 ?0 50 58 19 20 -0 0 0 50 32 14 52 10 55 ?50 27 59 19 60 -0 0
 50 27 32 51 30 48 0 50 60 20 0 +0 0 .25 0 0 -1 .005 -1 0 0 13 32 4 0 0 0 0 0 0
 22 27 14 27 5 61 ?52 0 46 19 62 +0 0 52 0 32 81 1 61 77 53 27 63 0 0 55 64 50 2
55 62 32 0 27 0 60 0 +0 0 .25 0 0 1 1 0 0 50 60 43 0 52 62 30 0 +0 0 0 0 0 1 1 0
 0 80 7 CCCCCDI12 legal_owners0 16 1 lCZ1 53 65 66 8015 0 0 0 0 3 5 0 0 0 FFFFTF
FFFFFFFFFF2 81 1 63 76 67 27 68 61 0 69 70 81 1 55 79 53 52 69 0 61 51 71 83 255
 1 64 0 81 1 69 78 67 52 72 55 63 54 73 83 1 71 0 80 1 67 0 74 8001 0 0 0 0 3 5
 0 0 0 FFFFTFTFFFFFFFFF2 81 1 72 68 75 52 0 69 76 68 77 81 1 54 80 67 50 78 51 6
9 79 80 83 3 73 .0784313725490196 .0784313725490196 .0784313725490196 81 1 78 66
 75 50 0 54 81 76 82 81 1 79 82 67 29 76 56 54 0 83 83 3 80 .0784313725490196 .0
784313725490196 .0784313725490196 81 1 76 67 75 29 0 79 78 72 84 81 1 56 83 53 2
9 79 0 51 0 85 83 3 83 .0784313725490196 .0784313725490196 .0784313725490196 83
 1 85 0 80 1 75 86 87 9000 0 0 0 0 3 6 0 0 0 TFTTTTTTFFFFTTFF3 84 255 11 84 {65}
@1b@{2}79 255 25 87 H3DX_BRIDGE/PERSISTENT_ID81 1 81 65 75 16 0 24 0 78 88 84 11
 82 {65}@1b@{1}81 1 24 74 89 16 81 17 0 0 90 84 3 88 10180 1 89 91 92 8017 0 0 0
 0 0 0 0 0 0 TTTTTTTTTTTTTFTF3 84 11 90 Imported 0179 13 92 SDL/TYSA_NAME81 1 68
 69 75 27 0 63 72 0 93 84 13 77 {65}@1b@{0;1}84 13 93 {65}@1b@{1;1}79 15 74 SDL/
TYSA_COLOUR83 3 70 .0784313725490196 .0784313725490196 .0784313725490196 79 21 6
6 SDL/TYSA_TRANSLUCENCY15 59 11 0 40 52 35 17 40 0 59 40 40 0 37 34 0 0 -15 35 1
3 0 33 52 0 15 58 19 0 41 29 94 17 41 0 58 41 41 0 95 38 0 0 +15 94 20 0 36 29 0
 17 36 0 94 36 36 0 33 23 0 0 -17 95 0 48 95 95 0 41 38 0 0 -15 48 8 0 95 27 0 8
3 1 57 0 19 28 22 0 16 0 22 19 0 S0 74 4 CI16 index_map_offset0 0 1 dCCZ20 26 5
 0 0 68 24 17 79 56 0 0 0 0 0 0 0 0 0 0 0 0 0 0 0 80 1 6 89 96 8038 0 0 0 0 0 0
 0 0 0 TTTTTTTTTTTTTFTF10 98 255 11 25 73 109 112 111 114 116 101 100 32 48 49 7
9 14 96 SDL/TYSA_UNAME74 20 15 2 0 0 13 10 0 0 0 0 0 0 0 0 0 0 0 0 0 0 0 0 0 0 8
1 1 13 1 89 4 0 10 0 0 97 84 10 97 Bar.SLDPRT98 10 14 66 97 114 46 83 76 68 80 8
2 84 74 20 9 2 0 0 7 2 0 0 0 0 0 0 0 0 0 0 0 0 0 0 0 0 0 0 81 1 7 1 89 1 0 2 0 0
 98 84 4 98 root98 4 8 114 111 111 116 1 0 
