**ABCDEFGHIJKLMNOPQRSTUVWXYZabcdefghijklmnopqrstuvwxyz**************************
**PARASOLID !"#$%&'()*+,-./:;<=>?@[\]^_`{|}~0123456789**************************
**PART1;
MC=unknown;
MC_MODEL=unknown;
MC_ID=unknown;
OS=iOS;
OS_RELEASE=unknown;
FRU=Shapr3D Zrt.;
APPL=Shapr3D;
SITE=Budapest, Hungary;
USER=unknown;
FORMAT=text;
GUISE=transmit;
KEY=/private/var/mobile/Containers/Data/Application/E2818F9A-2C52-4D1E-8716-1328FA984AC9/tmp/export/temp_export;
FILE=/private/var/mobile/Containers/Data/Application/E2818F9A-2C52-4D1E-8716-1328FA984AC9/tmp/export/temp_export;
DATE=2022-09-03 23:43 (UTC);
**PART2;
SCH=SCH_3401153_34101;
USFLD_SIZE=16;
**PART3;
**END_OF_HEADER*****************************************************************
T51 : TRANSMIT FILE created by modeller version 340115323 SCH_3401153_34101_1300
6231 0 10 21 CCCCI7 lattice222 0 CCCI4 mesh1006 0 I8 polyline1008 0 CCCCCCCCCCA1
6 mesh_offset_data206 0 Z1 3 2 3 0 0 0 0 0 0 0 0 1e3 1e-8 0 0 4 1 0 1 5 0 81 255
 1 2 2 6 1 7 0 0 0 8 70 11 CI9 list_type0 0 1 uI10 notransmit0 0 1 lCCCDCCDI12 f
inger_index0 0 1 dI12 finger_block1012 0 CZ3 0 4 T1 0 0 2 20 1 9 9 11 255 5 3 0
 1 4 0 1 0 0 0 0 10 4 3 10 11 0 0 0 0 0 0 0 0 1e3 1e-8 5 1 0 1 0 1 12 0 81 1 10
 2 6 4 13 0 0 0 14 70 11 0 4 T4 0 0 2 20 1 15 15 11 12 3 0 1 16 0 4 0 0 0 0 12 3
6 CCCI7 lattice222 0 CCCI4 mesh1006 0 I8 polyline1008 0 CCCCCCCDI5 owner1040 0 C
CCI16 boundary_lattice222 0 CCCI13 boundary_mesh1006 0 I17 boundary_polyline1008
 0 CCCA16 index_map_offset0 0 1 dA9 index_map82 0 A17 node_id_index_map82 0 A20
 schema_embedding_map82 0 A5 child12 0 A14 lowest_node_id0 0 1 dA16 mesh_offset_
data206 0 Z16 420 17 18 0 0 0 0 0 0 0 1e3 1e-8 12 0 0 1 0 1 1 19 0 20 21 0 0 0 2
2 23 0 0 0 0 0 0 0 0 81 1 17 372 6 16 24 0 0 0 25 70 18 0 4 T16 0 0 5 20 1 26 26
 13 255 19 103 0 16 0 27 0 0 28 0 51 255 20 264 0 29 30 0 0 +0 0 -.00125 0 0 1 .
0075 1 0 0 31 255 21 296 0 23 31 0 0 +0 0 .00125 0 0 1 1 0 0 .0075 19 9 CCCCCCI5
 frame230 0 CA5 owner12 0 Z22 101 0 16 28 0 32 0 V0 16 255 23 93 0 ?33 0 34 21 0
 0 16 17 255 33 0 35 33 33 0 36 23 0 0 +16 34 90 0 ?37 23 38 31 0 0 16 17 37 0 3
9 37 37 0 40 34 0 0 +16 38 88 0 ?41 34 42 43 0 0 16 31 31 295 0 34 43 21 0 +0 0
 -.00125 0 0 1 1 0 0 .01 31 43 294 0 38 44 31 0 +0 0 -.00125 0 0 1 1 0 0 .0075 3
1 44 293 0 42 45 43 0 +0 0 .00125 0 0 1 1 0 0 .01 16 42 84 0 ?46 38 47 44 0 0 16
 31 45 292 0 47 48 44 0 +0 0 -.01525 0 0 1 1 0 0 .01 16 47 78 0 ?49 42 50 45 0 0
 16 31 48 291 0 50 51 45 0 +0 0 -.01525 0 0 1 1 0 0 .0075 16 50 76 0 ?52 47 53 4
8 0 0 16 31 51 290 0 53 54 48 0 +0 0 -.01775 0 0 1 1 0 0 .0075 16 53 72 0 ?55 50
 56 51 0 0 16 31 54 289 0 56 57 51 0 +0 0 -.01775 0 0 1 1 0 0 .01 16 56 69 0 ?58
 53 59 54 0 0 16 31 57 288 0 59 60 54 0 +0 0 .01775 0 0 1 1 0 0 .0075 16 59 61 0
 ?61 56 62 57 0 0 16 31 60 287 0 62 63 57 0 +0 0 .01525 0 0 1 1 0 0 .01 16 62 58
 0 ?64 59 65 60 0 0 16 31 63 286 0 65 66 60 0 +0 0 .01525 0 0 1 1 0 0 .0075 16 6
5 56 0 ?67 62 68 63 0 0 16 31 66 285 0 68 69 63 0 +0 0 -.03175 0 0 1 1 0 0 .01 1
6 68 50 0 ?70 65 71 66 0 0 16 31 69 284 0 71 72 66 0 +0 0 -.03175 0 0 1 1 0 0 .0
075 16 71 48 0 ?73 68 74 69 0 0 16 31 72 283 0 74 75 69 0 +0 0 -.03425 0 0 1 1 0
 0 .0075 16 74 44 0 ?76 71 77 72 0 0 16 31 75 282 0 77 78 72 0 +0 0 .03425 0 0 1
 1 0 0 .0075 16 77 37 0 ?79 74 80 75 0 0 16 31 78 281 0 80 81 75 0 +0 0 .03175 0
 0 1 1 0 0 .0075 16 80 33 0 ?82 77 83 78 0 0 16 31 81 280 0 83 84 78 0 +0 0 .034
25 0 0 1 1 0 0 .01 16 83 26 0 ?85 80 86 81 0 0 16 31 84 279 0 86 87 81 0 +0 0 -.
04825 0 0 1 1 0 0 .005 16 86 23 0 ?88 83 89 84 0 0 16 31 87 278 0 89 90 84 0 +0
 0 .04825 0 0 1 1 0 0 .005 16 89 19 0 ?91 86 92 87 0 0 16 31 90 277 0 92 93 87 0
 +0 0 .04825 0 0 1 1 0 0 .01 16 92 17 0 ?94 89 95 90 0 0 16 31 93 276 0 95 96 90
 0 +0 0 .03175 0 0 1 1 0 0 .01 16 95 14 0 ?97 92 98 93 0 0 16 31 96 275 0 98 99
 93 0 +0 0 .01775 0 0 1 1 0 0 .01 16 98 12 0 ?100 95 101 96 0 0 16 31 99 274 0 1
01 102 96 0 +0 0 -.03425 0 0 1 1 0 0 .01 16 101 9 0 ?103 98 104 99 0 0 16 31 102
 273 0 104 0 99 0 +0 0 -.04825 0 0 1 1 0 0 .01 16 104 7 0 ?105 101 0 102 0 0 16
 17 105 0 106 105 105 0 107 104 0 0 +15 255 106 6 0 105 27 108 17 107 0 109 107
 107 0 105 104 0 0 -15 109 21 0 107 110 111 14 255 110 20 112 ?113 114 109 19 11
5 -0 0 113 114 32 15 111 22 0 88 110 0 17 88 0 111 88 88 0 116 86 0 0 +17 116 0
 117 116 116 0 88 86 0 0 -15 117 30 0 116 118 0 14 118 28 119 ?120 113 121 19 12
2 -0 0 120 113 32 81 1 119 384 123 118 124 0 125 126 127 14 120 31 126 ?128 118
 129 19 130 +0 0 128 118 32 14 113 24 125 ?118 110 131 19 132 +133 134 118 110 3
2 15 121 29 0 91 118 117 51 122 181 0 118 115 130 0 +0 0 .04825 0 0 -1 .005 -1 0
 0 13 32 4 0 0 0 0 0 0 22 27 14 27 5 135 ?133 0 106 19 132 +136 133 133 0 32 81
 1 135 374 123 27 137 0 0 138 139 14 133 10 138 ?114 27 140 19 132 +27 113 114 2
7 32 51 132 152 0 136 0 141 0 +0 0 .04825 0 0 -1 .01 -1 0 0 14 136 98 142 ?0 29
 143 19 132 +144 27 0 29 32 81 1 142 420 123 136 145 0 146 0 147 14 29 95 146 ?1
36 148 149 19 20 +0 0 136 148 32 15 143 99 0 49 136 150 14 144 82 151 ?152 153 1
54 19 132 +134 136 152 153 32 81 1 151 412 123 144 155 0 156 157 158 14 152 86 1
57 ?148 144 159 19 160 +0 0 148 144 32 14 153 79 156 ?144 161 162 19 163 +0 0 14
4 161 32 15 154 83 0 46 144 164 14 134 66 165 ?166 167 168 19 132 +113 144 166 1
67 32 81 1 165 404 123 134 169 0 170 171 172 14 166 70 171 ?161 134 173 19 174 +
0 0 161 134 32 14 167 63 170 ?134 175 176 19 177 +0 0 134 175 32 15 168 67 0 70
 134 178 17 70 0 168 70 70 0 179 68 0 0 +15 178 68 0 180 134 0 17 180 0 178 180
 180 0 58 56 0 0 -17 58 0 181 58 58 0 180 56 0 0 +15 181 73 0 58 166 0 17 179 0
 182 179 179 0 70 68 0 0 -15 182 49 0 179 183 0 14 183 46 184 ?185 186 187 19 18
8 -0 0 185 186 32 81 1 184 394 123 183 189 0 190 191 192 14 185 51 191 ?193 183
 194 19 195 +0 0 193 183 32 14 186 42 190 ?183 196 197 19 198 +0 0 183 196 32 15
 187 47 0 73 183 182 50 255 188 206 0 183 198 195 0 +0 0 -.03175 0 0 1 1 0 0 50
 198 201 0 186 199 188 0 +0 0 -.03425 0 0 1 1 0 0 51 195 211 0 185 188 200 0 +0
 0 -.03425 0 0 1 .0075 1 0 0 50 200 216 0 193 195 201 0 +0 0 .01525 0 0 1 1 0 0
 14 193 54 202 ?175 185 203 19 200 +0 0 175 185 32 50 201 221 0 175 200 177 0 +0
 0 .01775 0 0 1 1 0 0 14 175 59 204 ?167 193 205 19 201 -0 0 167 193 32 51 177 2
26 0 167 201 174 0 +0 0 .01525 0 0 1 .0075 1 0 0 50 174 235 0 166 177 206 0 +0 0
 -.01775 0 0 1 1 0 0 50 206 240 0 161 174 163 0 +0 0 -.01525 0 0 1 1 0 0 14 161
 74 207 ?153 166 208 19 206 -0 0 153 166 32 51 163 245 0 153 206 160 0 +0 0 -.01
775 0 0 1 .0075 1 0 0 50 160 254 0 152 163 30 0 +0 0 -.00125 0 0 1 1 0 0 50 30 2
59 0 148 160 20 0 +0 0 .00125 0 0 1 1 0 0 14 148 91 209 ?29 152 35 19 30 -0 0 29
 152 32 81 1 209 416 123 148 210 0 157 146 211 15 35 92 0 33 148 212 15 212 94 0
 213 148 0 17 213 0 212 213 213 0 46 42 0 0 -17 46 0 154 46 46 0 213 42 0 0 +80
 7 CCCCCDI12 legal_owners0 16 1 lCZ1 123 214 215 8015 0 0 0 0 3 5 0 0 0 FFFFTFFF
FFFFFFFF2 81 1 210 415 216 148 217 209 218 219 220 81 1 157 414 123 152 218 0 15
1 209 221 81 1 146 418 123 29 219 0 209 142 222 83 255 1 211 0 81 1 219 417 216
 29 223 146 210 145 224 83 1 222 0 80 1 216 0 225 8001 0 0 0 0 3 5 0 0 0 FFFFTFT
FFFFFFFFF2 81 1 223 313 226 29 0 219 227 228 229 81 1 145 419 216 136 227 142 21
9 0 230 83 3 224 1 0 0 81 1 227 311 226 136 0 145 231 223 232 83 3 230 0 0 0 80
 1 226 233 234 9000 0 0 0 0 3 6 0 0 0 TFTTTTTTFFFFTTFF3 81 1 231 309 226 133 0 2
35 236 227 237 84 255 11 232 {67}@1b@{2}81 1 235 375 216 133 231 138 137 238 239
 81 1 236 307 226 27 0 137 240 231 241 84 11 237 {67}@1b@{2}81 1 137 373 216 27
 236 135 0 235 242 81 1 240 305 226 113 0 243 244 236 245 84 11 241 {67}@1b@{2}8
1 1 243 381 216 113 240 125 246 124 247 81 1 244 303 226 120 0 248 249 240 250 8
4 11 245 {67}@1b@{2}81 1 248 385 216 120 244 126 124 251 252 81 1 249 301 226 11
8 0 124 253 244 254 84 15 250 {67}@2f@{1;0;0}81 1 124 383 216 118 249 119 243 24
8 255 81 1 253 299 226 110 0 246 256 249 257 84 11 254 {67}@1b@{1}81 1 246 379 2
16 110 253 112 238 243 258 81 1 256 298 226 16 0 24 0 253 259 84 13 257 {67}@1b@
{0;1}81 1 24 371 260 16 256 17 0 0 261 84 3 259 10380 1 260 262 263 8017 0 0 0 0
 0 0 0 0 0 TTTTTTTTTTTTTFTF3 84 11 261 Imported 0179 255 13 263 SDL/TYSA_NAME81
 1 112 380 123 110 246 0 264 125 265 81 1 238 377 216 114 266 264 235 246 267 83
 3 258 1 0 0 14 114 15 264 ?110 133 268 19 141 +0 0 110 133 32 81 1 266 345 226
 114 0 238 269 0 270 81 1 264 378 123 114 238 0 138 112 271 83 3 267 1 0 0 81 1
 138 376 123 133 235 0 135 264 272 83 1 271 0 83 1 272 0 81 1 269 343 226 128 0
 251 273 266 274 84 13 270 {67}@1b@{1;1}14 128 35 275 ?196 120 276 19 277 -0 0 1
96 120 32 81 1 251 387 216 128 269 275 248 278 279 81 1 273 341 226 196 0 278 21
7 269 280 84 15 274 {67}@2f@{0;0;0}14 196 39 281 ?186 128 282 19 199 +0 0 186 12
8 32 81 1 278 389 216 196 273 281 251 283 284 81 1 217 339 226 148 0 210 285 273
 286 84 22 280 {67}@2f@{2;ffffffff;0}81 1 285 337 226 161 0 287 288 217 289 84 2
6 286 {67}@36@{2;0;{2f@{0;0;0}}}81 1 287 407 216 161 285 207 290 291 292 81 1 28
8 335 226 175 0 293 294 285 295 84 26 289 {67}@36@{3;0;{2f@{0;0;0}}}81 1 293 399
 216 175 288 204 296 297 298 81 1 294 333 226 193 0 296 299 288 300 84 26 295 {6
7}@36@{1;0;{2f@{0;0;0}}}81 1 296 397 216 193 294 202 301 293 302 81 1 299 331 22
6 186 0 283 303 294 304 84 26 300 {67}@36@{1;0;{2f@{1;0;0}}}81 1 283 391 216 186
 299 190 278 189 305 81 1 303 329 226 185 0 301 306 299 307 84 26 304 {67}@36@{4
;0;{2f@{1;0;0}}}81 1 301 395 216 185 303 191 189 296 308 81 1 306 327 226 183 0
 189 309 303 310 84 33 307 {67}@36@{4;0;{2f@{2;ffffffff;0}}}81 1 189 393 216 183
 306 184 283 301 311 81 1 309 325 226 167 0 297 312 306 313 84 26 310 {67}@36@{4
;0;{2f@{0;0;0}}}81 1 297 401 216 167 309 170 293 169 314 81 1 312 323 226 166 0
 290 315 309 316 84 33 313 {67}@36@{1;0;{2f@{2;ffffffff;0}}}81 1 290 405 216 166
 312 171 169 287 317 81 1 315 321 226 134 0 169 318 312 319 84 26 316 {67}@36@{3
;0;{2f@{1;0;0}}}81 1 169 403 216 134 315 165 297 290 320 81 1 318 319 226 153 0
 291 321 315 322 84 11 319 {67}@1b@{2}81 1 291 409 216 153 318 156 287 155 323 8
1 1 321 317 226 152 0 218 228 318 324 84 33 322 {67}@36@{3;0;{2f@{2;ffffffff;0}}
}81 1 218 413 216 152 321 157 155 210 325 81 1 228 315 226 144 0 155 223 321 326
 84 26 324 {67}@36@{2;0;{2f@{1;0;0}}}81 1 155 411 216 144 228 151 291 218 327 84
 11 326 {67}@1b@{2}83 3 327 0 0 0 83 3 325 1 0 0 81 1 156 410 123 153 291 0 207
 151 328 83 3 323 1 0 0 81 1 207 408 123 161 287 0 171 156 329 83 1 328 0 81 1 1
71 406 123 166 290 0 165 207 330 83 1 329 0 83 1 330 0 83 3 320 0 0 0 83 3 317 1
 0 0 81 1 170 402 123 167 297 0 204 165 331 83 3 314 1 0 0 81 1 204 400 123 175
 293 0 202 170 332 83 1 331 0 81 1 202 398 123 193 296 0 191 204 333 83 1 332 0
 81 1 191 396 123 185 301 0 184 202 334 83 1 333 0 83 1 334 0 83 3 311 1 0 0 83
 3 308 1 0 0 81 1 190 392 123 186 283 0 281 184 335 83 3 305 1 0 0 81 1 281 390
 123 196 278 0 275 190 336 83 1 335 0 81 1 275 388 123 128 251 0 126 281 337 83
 1 336 0 81 1 126 386 123 120 248 0 119 275 338 83 1 337 0 83 1 338 0 83 3 302 1
 0 0 83 3 298 1 0 0 83 3 292 1 0 0 83 3 284 1 0 0 15 282 40 0 82 196 339 51 199
 196 0 196 277 198 0 +0 0 .03175 0 0 1 .0075 1 0 0 50 277 191 0 128 130 199 0 +0
 0 .03425 0 0 1 1 0 0 50 130 186 0 120 122 277 0 +0 0 .03175 0 0 1 1 0 0 17 82 0
 282 82 82 0 340 80 0 0 +15 339 41 0 341 196 0 17 341 0 339 341 341 0 79 77 0 0
 -17 79 0 276 79 79 0 341 77 0 0 +15 276 36 0 79 128 342 15 342 38 0 343 128 0 1
7 343 0 342 343 343 0 85 83 0 0 -17 85 0 131 85 85 0 343 83 0 0 +15 131 25 0 85
 113 344 15 344 27 0 345 113 0 17 345 0 344 345 345 0 94 92 0 0 -17 94 0 268 94
 94 0 345 92 0 0 +15 268 16 0 94 114 346 15 346 18 0 347 114 0 17 347 0 346 347
 347 0 91 89 0 0 -17 91 0 121 91 91 0 347 89 0 0 +17 340 0 129 340 340 0 82 80 0
 0 -15 129 32 0 340 120 348 15 348 34 0 97 120 0 17 97 0 348 97 97 0 349 95 0 0
 +17 349 0 350 349 349 0 97 95 0 0 -15 350 13 0 349 133 0 83 3 279 1 0 0 50 141
 167 0 114 132 115 0 +0 0 .04825 0 0 1 1 0 0 50 115 172 0 110 141 122 0 +0 0 -.0
4825 0 0 1 1 0 0 81 1 125 382 123 113 243 0 112 119 351 83 1 265 0 83 1 351 0 83
 3 255 1 0 0 83 3 252 1 0 0 83 3 247 0 0 0 83 3 242 0 0 0 83 3 239 0 0 0 79 25 2
34 H3DX_BRIDGE/PERSISTENT_ID84 33 229 {67}@36@{2;0;{2f@{2;ffffffff;0}}}79 15 225
 SDL/TYSA_COLOUR83 1 221 0 83 3 220 1 0 0 79 21 215 SDL/TYSA_TRANSLUCENCY15 208
 75 0 52 161 352 17 52 0 208 52 52 0 353 50 0 0 +15 352 77 0 354 161 0 17 354 0
 352 354 354 0 49 47 0 0 -17 49 0 143 49 49 0 354 47 0 0 +17 353 0 355 353 353 0
 52 50 0 0 -15 355 81 0 353 153 0 15 205 60 0 61 175 356 17 61 0 205 61 61 0 357
 59 0 0 +15 356 62 0 358 175 0 17 358 0 356 358 358 0 100 98 0 0 -17 100 0 140 1
00 100 0 358 98 0 0 +15 140 11 0 100 133 350 17 357 0 359 357 357 0 61 59 0 0 -1
5 359 65 0 357 167 0 15 203 55 0 360 193 361 17 360 0 203 360 360 0 67 65 0 0 -1
5 361 57 0 64 193 0 17 64 0 361 64 64 0 362 62 0 0 +17 362 0 164 362 362 0 64 62
 0 0 -15 164 85 0 362 144 0 17 67 0 176 67 67 0 360 65 0 0 +15 176 64 0 67 167 3
59 17 73 0 187 73 73 0 363 71 0 0 +17 363 0 364 363 363 0 73 71 0 0 -15 364 53 0
 363 185 0 15 197 43 0 365 186 366 17 365 0 197 365 365 0 76 74 0 0 -15 366 45 0
 103 186 0 17 103 0 366 103 103 0 367 101 0 0 +17 367 0 108 367 367 0 103 101 0
 0 -15 108 8 0 367 27 0 17 76 0 194 76 76 0 365 74 0 0 +15 194 52 0 76 185 364 8
3 1 192 0 15 173 71 0 368 166 181 17 368 0 173 368 368 0 55 53 0 0 -17 55 0 162
 55 55 0 368 53 0 0 +15 162 80 0 55 153 355 83 1 172 0 15 159 87 0 369 152 39 17
 369 0 159 369 369 0 41 38 0 0 -15 39 89 0 37 152 0 17 41 0 149 41 41 0 369 38 0
 0 +15 149 96 0 41 29 370 15 370 97 0 36 29 0 17 36 0 370 36 36 0 33 23 0 0 -83
 1 158 0 15 150 100 0 40 136 0 17 40 0 150 40 40 0 37 34 0 0 -83 1 147 0 83 1 13
9 0 83 1 127 0 19 28 102 0 16 0 22 19 0 S0 74 4 CI16 index_map_offset0 0 1 dCCZ2
0 26 5 0 0 266 24 17 145 142 0 0 0 0 0 0 0 0 0 0 0 0 0 0 0 80 1 6 260 371 8038 0
 0 0 0 0 0 0 0 0 TTTTTTTTTTTTTFTF10 98 255 11 25 73 109 112 111 114 116 101 100
 32 48 49 79 14 371 SDL/TYSA_UNAME74 20 15 2 0 0 13 10 0 0 0 0 0 0 0 0 0 0 0 0 0
 0 0 0 0 0 81 1 13 1 260 4 0 10 0 0 372 84 11 372 Foam.SLDPRT98 11 14 70 111 97
 109 46 83 76 68 80 82 84 74 20 9 2 0 0 7 2 0 0 0 0 0 0 0 0 0 0 0 0 0 0 0 0 0 0
 81 1 7 1 260 1 0 2 0 0 373 84 4 373 root98 4 8 114 111 111 116 1 0 
