**ABCDEFGHIJKLMNOPQRSTUVWXYZabcdefghijklmnopqrstuvwxyz**************************
**PARASOLID !"#$%&'()*+,-./:;<=>?@[\]^_`{|}~0123456789**************************
**PART1;
MC=unknown;
MC_MODEL=unknown;
MC_ID=unknown;
OS=iOS;
OS_RELEASE=unknown;
FRU=Shapr3D Zrt.;
APPL=Shapr3D;
SITE=Budapest, Hungary;
USER=unknown;
FORMAT=text;
GUISE=transmit;
KEY=/private/var/mobile/Containers/Data/Application/BCB11D9C-C95C-42AE-A5C9-CE26384C5F41/tmp/export/temp_export;
FILE=/private/var/mobile/Containers/Data/Application/BCB11D9C-C95C-42AE-A5C9-CE26384C5F41/tmp/export/temp_export;
DATE=2022-11-06 18:10 (UTC);
**PART2;
SCH=SCH_3401244_34101;
USFLD_SIZE=16;
**PART3;
**END_OF_HEADER*****************************************************************
T51 : TRANSMIT FILE created by modeller version 340124423 SCH_3401244_34101_1300
6231 0 10 21 CCCCI7 lattice222 0 CCCI4 mesh1006 0 I8 polyline1008 0 CCCCCCCCCCA1
6 mesh_offset_data206 0 Z1 4 2 3 0 0 0 0 0 0 0 0 1e3 1e-8 0 0 4 1 0 1 5 0 81 255
 1 2 2 6 1 7 0 0 0 8 70 11 CI9 list_type0 0 1 uI10 notransmit0 0 1 lCCCDCCDI12 f
inger_index0 0 1 dI12 finger_block1012 0 CZ3 0 4 T1 0 0 2 20 1 9 9 11 255 5 4 0
 1 4 0 1 10 0 0 0 10 4 3 11 12 0 0 0 0 0 0 0 0 1e3 1e-8 5 1 13 1 0 1 14 0 11 10
 3 0 1 15 0 1 0 5 0 0 12 36 CCCI7 lattice222 0 CCCI4 mesh1006 0 I8 polyline1008
 0 CCCCCCCDI5 owner1040 0 CCCI16 boundary_lattice222 0 CCCI13 boundary_mesh1006
 0 I17 boundary_polyline1008 0 CCCA16 index_map_offset0 0 1 dA9 index_map82 0 A1
7 node_id_index_map82 0 A20 schema_embedding_map82 0 A5 child12 0 A14 lowest_nod
e_id0 0 1 dA16 mesh_offset_data206 0 Z15 139 16 17 0 0 0 0 0 0 0 1e3 1e-8 10 0 0
 1 0 1 1 18 0 19 20 21 0 0 22 23 24 0 0 0 0 0 0 0 81 1 16 129 6 15 25 0 0 0 26 7
0 17 0 4 T15 0 0 4 20 1 27 27 13 255 18 4 0 15 0 28 0 0 29 0 50 255 19 125 0 30
 31 0 0 +0 0 .000999999999999973 0 0 1 1 0 0 31 255 20 127 0 32 33 0 0 +-3469446
951953615e-33 612323399573677e-33 .000999999999999973 0 0 1 1 0 0 .006 29 255 21
 41 0 24 0 0 0 0 .0125 19 9 CCCCCCI5 frame230 0 CA5 owner12 0 Z22 5 0 15 29 0 34
 0 V0 16 255 23 61 0 ?35 0 32 36 0 0 15 18 255 24 8 0 37 0 0 21 ?15 17 255 37 0
 38 37 37 24 0 0 0 0 ?15 255 38 57 0 37 28 39 14 255 28 2 40 ?41 0 38 18 42 -0 0
 41 0 34 15 39 7 0 43 28 0 17 43 0 39 43 43 0 44 45 0 0 +17 44 0 46 44 44 0 43 4
5 0 0 -16 45 71 0 ?43 47 0 48 0 0 15 16 47 69 0 ?49 32 45 33 0 0 15 31 48 112 0
 45 36 33 0 +-129991658273311e-32 0 .0119366886140175 -1387778780781446e-30 0 1
 1 0 1387778780781446e-30 .006 31 36 106 0 23 0 48 0 +-551091059616309e-33 0 .01
1 0 0 1 1 0 0 .005 31 33 126 0 47 48 20 0 +-551091059616309e-33 0 .0009999999999
99973 0 0 1 1 0 0 .005 17 49 0 50 49 49 0 51 47 0 0 +16 32 68 0 ?52 23 47 20 0 0
 15 17 52 0 53 52 52 0 54 32 0 0 +15 53 74 0 52 41 46 17 54 0 55 54 54 0 52 32 0
 0 -15 55 79 0 54 30 0 14 30 76 56 ?57 41 50 18 19 -0 0 57 41 34 81 1 56 135 58
 30 59 0 60 61 62 14 57 80 61 ?63 30 64 18 65 -0 0 63 30 34 14 41 72 60 ?30 28 5
3 18 31 -0 0 30 28 34 15 50 78 0 49 30 55 13 34 3 0 0 0 0 0 0 22 28 81 1 60 133
 58 41 66 0 40 56 67 51 255 31 110 0 41 65 19 0 --3469446951953615e-33 612323399
573677e-33 .011 0 0 -1 .006 -1 0 0 51 65 105 0 57 68 31 0 +-551091059616309e-33
 0 -.017 0 0 1 .005 1 0 0 50 68 46 0 63 42 65 0 +0 .005 .011 0 0 1 1 0 0 14 63 3
5 69 ?0 57 70 18 68 -0 0 0 57 34 124 255 42 39 0 28 0 68 0 +71 72 126 255 71 FT2
 3 3 7 5 5 2 3 TFT8 4 73 74 75 76 77 125 255 72 0 1 0 1 0 1 0 1 2 BDPPBDPP????0
 0 0 0 45 255 84 73 0 .01 .011 1 -.00666666666666667 .003333333333333335 .003666
66666666666 .3333333333333335 -.00666666666666667 -.003333333333333335 .00366666
666666666 .3333333333333335 0 -.01 .011 1 .00666666666666667 -.00333333333333333
5 .00366666666666666 .3333333333333335 .00666666666666667 .003333333333333335 .0
0366666666666666 .3333333333333335 0 .01 .011 1 0 .00505110787180037 .0124423521
028543 1 -.003367405247866915 .001683702623933455 .004147450700951425 .333333333
3333335 -.003367405247866915 -.001683702623933455 .004147450700951425 .333333333
3333335 0 -.00505110787180037 .0124423521028543 1 .003367405247866915 -.00168370
2623933455 .004147450700951425 .3333333333333335 .003367405247866915 .0016837026
23933455 .004147450700951425 .3333333333333335 0 .00505110787180037 .01244235210
28543 1 0 0 .0125 1 0 0 .00416666666666666 .3333333333333335 0 0 .00416666666666
666 .3333333333333335 0 0 .0125 1 0 0 .00416666666666666 .3333333333333335 0 0 .
00416666666666666 .3333333333333335 0 0 .0125 1 127 255 2 74 3 3 127 3 75 4 3 4
 128 255 2 76 0 1 128 3 77 0 .5 1 81 1 69 139 58 63 78 0 61 0 79 15 70 63 0 80 6
3 0 17 80 0 70 80 80 0 35 23 0 0 -17 35 0 64 35 35 0 80 23 0 0 +15 64 82 0 35 57
 81 15 81 83 0 51 57 0 17 51 0 81 51 51 0 49 47 0 0 -80 7 CCCCCDI12 legal_owners
0 16 1 lCZ1 58 82 83 8015 0 0 0 0 3 5 0 0 0 FFFFTFFFFFFFFFFF2 81 1 78 138 84 63
 0 69 85 0 86 81 1 61 137 58 57 85 0 56 69 87 83 255 1 79 0 81 1 85 136 84 57 0
 61 59 78 88 83 1 87 0 80 1 84 0 89 8001 0 0 0 0 3 5 0 0 0 FFFFTFTFFFFFFFFF2 81
 1 59 134 84 30 0 56 66 85 90 83 3 88 .850980392156863 .788235294117647 .7882352
94117647 81 1 66 132 84 41 0 60 91 59 92 83 3 90 .850980392156863 .7882352941176
47 .788235294117647 81 1 91 130 84 28 0 40 0 66 93 83 3 92 .850980392156863 .788
235294117647 .788235294117647 81 1 40 131 58 28 91 0 0 60 94 83 3 93 .8509803921
56863 .788235294117647 .788235294117647 83 1 94 0 79 255 15 89 SDL/TYSA_COLOUR83
 3 86 .850980392156863 .788235294117647 .788235294117647 79 21 83 SDL/TYSA_TRANS
LUCENCY83 1 67 0 83 1 62 0 15 46 75 0 44 41 0 19 29 55 0 15 0 22 18 0 S0 74 4 CI
16 index_map_offset0 0 1 dCCZ20 27 4 0 0 25 16 78 69 0 0 0 0 0 0 0 0 0 0 0 0 0 0
 0 0 81 1 25 128 95 15 0 16 0 0 96 80 1 95 97 98 8017 0 0 0 0 0 0 0 0 0 TTTTTTTT
TTTTTFTF3 84 255 7 96 Body 0379 13 98 SDL/TYSA_NAME80 1 6 95 99 8038 0 0 0 0 0 0
 0 0 0 TTTTTTTTTTTTTFTF10 98 255 7 26 66 111 100 121 32 48 51 79 14 99 SDL/TYSA_
UNAME81 1 11 2 6 4 100 0 0 0 101 70 12 0 4 T4 0 0 2 20 1 102 102 11 14 3 0 1 13
 0 4 0 0 0 0 10 13 2 103 104 0 0 0 0 0 0 0 0 1e3 1e-8 14 4 0 1 0 1 0 0 81 1 103
 2 6 13 105 0 0 0 106 70 104 0 4 T13 0 0 2 20 1 107 107 74 20 107 2 0 0 105 103
 0 0 0 0 0 0 0 0 0 0 0 0 0 0 0 0 0 0 81 1 105 1 95 13 0 103 0 0 108 84 11 108 Fo
ot.SLDPRT98 11 106 70 111 111 116 46 83 76 68 80 82 84 74 20 102 2 0 0 100 11 0
 0 0 0 0 0 0 0 0 0 0 0 0 0 0 0 0 0 81 1 100 1 95 4 0 11 0 0 109 84 8 109 FOOT.x_
t98 8 101 70 79 79 84 46 120 95 116 74 20 9 2 0 0 7 2 0 0 0 0 0 0 0 0 0 0 0 0 0
 0 0 0 0 0 81 1 7 1 95 1 0 2 0 0 110 84 4 110 root98 4 8 114 111 111 116 1 0 
