**ABCDEFGHIJKLMNOPQRSTUVWXYZabcdefghijklmnopqrstuvwxyz**************************
**PARASOLID !"#$%&'()*+,-./:;<=>?@[\]^_`{|}~0123456789**************************
**PART1;
MC=unknown;
MC_MODEL=unknown;
MC_ID=unknown;
OS=iOS;
OS_RELEASE=unknown;
FRU=Shapr3D Zrt.;
APPL=Shapr3D;
SITE=Budapest, Hungary;
USER=unknown;
FORMAT=text;
GUISE=transmit;
KEY=/private/var/mobile/Containers/Data/Application/E2818F9A-2C52-4D1E-8716-1328FA984AC9/tmp/export/temp_export;
FILE=/private/var/mobile/Containers/Data/Application/E2818F9A-2C52-4D1E-8716-1328FA984AC9/tmp/export/temp_export;
DATE=2022-09-03 23:46 (UTC);
**PART2;
SCH=SCH_3401153_34101;
USFLD_SIZE=16;
**PART3;
**END_OF_HEADER*****************************************************************
T51 : TRANSMIT FILE created by modeller version 340115323 SCH_3401153_34101_1300
6231 0 10 21 CCCCI7 lattice222 0 CCCI4 mesh1006 0 I8 polyline1008 0 CCCCCCCCCCA1
6 mesh_offset_data206 0 Z1 3 2 3 0 0 0 0 0 0 0 0 1e3 1e-8 0 0 4 1 0 1 5 0 81 255
 1 2 2 6 1 7 0 0 0 8 70 11 CI9 list_type0 0 1 uI10 notransmit0 0 1 lCCCDCCDI12 f
inger_index0 0 1 dI12 finger_block1012 0 CZ3 0 4 T1 0 0 2 20 1 9 9 11 255 5 3 0
 1 4 0 1 0 0 0 0 10 4 3 10 11 0 0 0 0 0 0 0 0 1e3 1e-8 5 1 0 1 0 1 12 0 81 1 10
 2 6 4 13 0 0 0 14 70 11 0 4 T4 0 0 2 20 1 15 15 11 12 3 0 1 16 0 4 0 0 0 0 12 3
6 CCCI7 lattice222 0 CCCI4 mesh1006 0 I8 polyline1008 0 CCCCCCCDI5 owner1040 0 C
CCI16 boundary_lattice222 0 CCCI13 boundary_mesh1006 0 I17 boundary_polyline1008
 0 CCCA16 index_map_offset0 0 1 dA9 index_map82 0 A17 node_id_index_map82 0 A20
 schema_embedding_map82 0 A5 child12 0 A14 lowest_node_id0 0 1 dA16 mesh_offset_
data206 0 Z16 474 17 18 0 0 0 0 0 0 0 1e3 1e-8 12 0 0 1 0 1 1 19 0 20 21 22 0 0
 23 24 25 0 0 0 0 0 0 0 81 1 17 434 6 16 26 0 0 0 27 70 18 0 4 T16 0 0 5 20 1 28
 28 13 255 19 125 0 16 0 29 0 0 30 0 51 255 20 375 0 16 31 0 32 +0 .031592105863
01 .0102648974403671 0 -.951056516295153 -.3090169943749485 .008 0 .309016994374
9485 -.951056516295153 32 255 21 388 0 24 33 0 0 +0 0 0 0 -1 0 0 0 -1 .008411697
79390614 .008 29 255 22 221 0 34 35 0 -.0125 0 -.017 19 9 CCCCCCI5 frame230 0 CA
5 owner12 0 Z23 123 0 16 30 0 36 0 V0 16 255 24 113 0 ?37 0 38 21 0 0 16 18 255
 25 41 0 39 0 34 40 ?16 17 255 39 0 41 42 43 25 44 45 0 46 +18 34 53 0 47 25 48
 22 ?16 29 40 215 0 25 49 50 .0125 0 -.017 29 49 214 0 51 52 40 .0175 0 -.012 29
 50 216 0 53 40 54 .0175 0 .012 18 53 43 0 55 56 51 50 ?16 29 54 217 0 56 50 57
 .0125 0 .017 18 56 45 0 58 59 53 54 ?16 29 57 218 0 59 54 60 -.0125 0 .017 18 5
9 47 0 61 62 56 57 ?16 29 60 219 0 62 57 35 -.0175 0 .012 18 62 49 0 63 48 59 60
 ?16 29 35 220 0 48 60 22 -.0175 0 -.012 18 48 51 0 64 34 62 35 ?16 17 64 0 65 6
6 67 48 68 69 0 70 +15 255 65 70 0 66 71 0 17 66 0 65 72 64 62 73 74 0 75 +17 67
 0 65 64 72 76 77 78 0 68 -17 68 0 79 80 70 76 64 69 0 81 -16 69 68 0 ?64 82 83
 84 0 0 16 17 70 0 79 68 47 48 85 86 0 73 +15 79 67 0 70 87 0 17 47 0 79 70 80 3
4 88 83 0 42 +17 85 0 89 90 73 34 70 86 0 0 -16 86 52 0 ?70 91 74 92 0 0 16 17 7
3 0 89 85 75 48 66 74 0 0 -15 89 38 0 93 94 95 17 75 0 89 73 96 62 97 98 0 0 -16
 74 50 0 ?66 86 98 99 0 0 16 16 98 48 0 ?97 74 100 101 0 0 16 30 255 99 346 0 74
 101 92 0 +-.0175 0 .012 0 0 1 31 255 101 345 0 98 102 99 0 +-.0125 0 .012 0 1 0
 0 0 -1 .005 31 92 347 0 86 99 103 0 +-.0125 0 -.012 0 1 0 0 0 -1 .005 30 103 34
8 0 91 92 104 0 +-.0125 0 -.017 -1 0 0 16 91 54 0 ?42 105 86 103 0 0 16 31 104 3
49 0 105 103 106 0 +-.0135 0 .0125 0 1 0 0 0 1 .0016 16 105 56 0 ?107 108 91 104
 0 0 16 31 106 350 0 108 104 109 0 +.0135 0 -.0125 0 1 0 0 0 1 .0016 16 108 58 0
 ?110 45 105 106 0 0 16 30 109 351 0 45 106 111 0 +.0125 .004 -.017 0 -1 0 16 45
 61 0 ?39 112 108 109 0 0 16 30 111 352 0 112 109 113 0 +.0175 .004 -.012 0 -1 0
 16 112 62 0 ?114 83 45 111 0 0 16 30 113 353 0 83 111 84 0 +-.0125 .004 -.017 0
 -1 0 16 83 65 0 ?47 69 112 113 0 0 16 30 84 354 0 69 113 115 0 +-.0175 .004 -.0
12 0 -1 0 30 115 355 0 82 84 116 0 +-.0175 .004 .012 0 -1 0 16 82 71 0 ?63 117 6
9 115 0 0 16 30 116 356 0 117 115 118 0 +-.0125 .004 .017 0 -1 0 16 117 74 0 ?61
 119 82 116 0 0 16 30 118 357 0 119 116 120 0 +.0125 .004 .017 0 -1 0 16 119 77
 0 ?58 121 117 118 0 0 16 30 120 358 0 121 118 122 0 +.0175 .004 .012 0 -1 0 16
 121 80 0 ?55 123 119 120 0 0 16 38 12 CCCCCCCCCCCA17 intersection_data204 0 Z12
2 364 0 123 120 124 0 +125 31 126 127 128 129 16 123 97 0 ?130 131 121 122 0 0 1
6 38 124 370 0 131 122 132 0 +125 31 133 134 135 136 51 125 359 0 16 137 31 138
 +0 .03159210586301 .0102648974403671 0 -.951056516295153 -.3090169943749485 .01
 0 .3090169943749485 -.951056516295153 51 31 360 0 16 125 20 139 +-.0175 -.01026
58477444273 -.0033355761306926 1 0 0 .0016 0 0 -1 40 255 20 126 0 1 20 918214621
208252e-19 .3412715947580575 ??-.0098835448219351 -.0102658477444273 -.004935576
1306926 -.00991875402007882 -.01079564524283154 -.00484531604560662 -.0099612401
6462003 -.01126514984627068 -.00458513417626367 -.00999257375867202 -.0116236834
8427162 -.00418191064115607 -.00999888609010335 -.0118270251075067 -.00368589775
5786465 -.00997806070686541 -.01185574393151986 -.00315604865572422 -.0099390167
0560419 -.0117091919657504 -.00264509987565322 -.00989803910494236 -.01139915011
46684 -.00220614010434765 -.00987349412790477 -.01095955039720762 -.001893779810
29032 -.00987633931453271 -.01044645759852732 -.001745802536559785 -.00990467691
879109 -.00991732708021504 -.001773995730387495 -.00994645860349165 -.0094234863
510429 -.001975272016556535 -.00998378397409076 -.00901963764367717 -.0023321019
73183615 -.00999991438227657 -.00875745360469959 -.00280195911518886 -.009988209
65127157 -.00866587549470504 -.00332615274920272 -.00995408979255095 -.008750683
2913384 -.003849654607285255 -.00991163305708205 -.00900504452552993 -.004320652
393333235 -.00987938969289928 -.00940415900139076 -.00468372022911981 -.00987204
493229813 -.00989807880283276 -.00489273572610934 -.0098835448219351 -.010265847
7444273 -.0049355761306926 41 3 CI8 term_use0 0 1 cCZ1 127 H?-.0098835448219351
 -.0102658477444273 -.0049355761306926 41 1 128 H?-.0098835448219351 -.010265847
7444273 -.0049355761306926 204 2 17 INTERSECTION_DATA17 Intersection data7 uv_ty
pe0 0 1 u6 values0 1 1 fT80 129 4 4.86515148414467 .04450648419313815 0 .0076164
551780649 4.83994777785005 .0449824596561071 5.94569137899511 .00758124597992118
 4.80046269955166 .0453485844493833 5.60861241505662 .00753875983537997 4.750930
28462068 .0455649672772349 5.26976249959507 .00750742624132798 4.69746295896444
 .0456050802420385 4.93312825099406 .00750111390989666 4.64613595020342 .0454686
61090383 4.59994752385356 .0075219392931346 4.60189429445395 .045171390032065 4.
26618126887484 .00756098329439581 4.56946617969729 .0447408766800889 3.928699516
56082 .00760196089505764 4.5531573852122 .04422626786500465 3.59003692609163 .00
762650587209523 4.55496192085601 .0436925601229916 3.254714922384025 .0076236606
8546729 4.5742043872885 .04319803927159855 2.922006825429945 .00759532308120891
 4.60886193767505 .04279056662109835 2.58714254116705 .00755354139650835 4.65543
213625919 .04251675019706065 2.24871251968528 .00751621602590924 4.7082509169340
3 .0424125922001305 1.91082129898954 .00750008561772343 4.76095371312196 .042487
48098312365 1.576685974275975 .00751179034872843 4.80824864827413 .0427299089614
788 1.243695375319454 .00754591020744906 4.84542836985227 .0431173671909513 .907
5570121359 .00758836694291795 4.86785829398109 .04360914174533545 .5687217691681
3 .00762061030710072 4.8725319650105 .0441434767316816 .2319292957250755 .007627
95506770187 4.86515148414467 .04450648419313815 0 .0076164551780649 141 255 139
 33 140 141 31 38 33 385 0 38 142 21 0 +20 31 143 144 145 146 141 140 122 147 13
9 31 141 141 142 139 147 31 38 142 379 0 148 149 33 0 +20 31 150 151 152 153 141
 147 124 141 140 31 16 148 109 0 ?154 38 155 142 0 0 16 31 149 374 0 155 132 142
 0 +0 -.0142658477444273 -.00463525491562423 0 -.951056516295153 -.3090169943749
485 0 .3090169943749485 -.951056516295153 .008 40 20 150 0 1 20 927771090882946e
-19 .3434811606831545 ??-.00785394539369864 -.0102658477444273 -.004935576130692
6 -.00789822001374176 -.01079576635878674 -.00484527353817377 -.0079514867534642
1 -.01126506267417028 -.00458520388493733 -.00799077361694925 -.0116243436404244
8 -.00418085058349406 -.00799859694371076 -.0118271499917283 -.00368534075522298
5 -.00797279304289127 -.0118560890525945 -.00315913185677402 -.00792427498871263
 -.01171190373807514 -.002650797288119935 -.0078726992191355 -.0114035974408566
 -.00221062029677066 -.00784143223054216 -.01096410693977994 -.00189598101535444
5 -.00784460771351247 -.01045320121037224 -.0017465831543713 -.007879546629526 -
.00992807893555328 -.001771634881236015 -.00793163521664657 -.0094349239741918 -
.001968255506969825 -.00797887721483244 -.00902754119866159 -.002322364948996595
 -.00799982257229864 -.00876146584203175 -.00279075038630753 -.00798608985648989
 -.00866602753862033 -.00331159052893324 -.0079443160919649 -.00874484559779158
 -.00383211663249436 -.00789114534566264 -.00899287489843682 -.00430487491505731
 -.00784966112907078 -.00938851147340303 -.0046735899824689 -.0078391773161497 -
.0098798314062607 -.00488831287163372 -.00785394539369864 -.0102658477444273 -.0
049355761306926 41 1 151 H?-.00785394539369864 -.0102658477444273 -.004935576130
6926 41 1 152 H?-.00785394539369864 -.0102658477444273 -.0049355761306926 204 80
 153 4 4.90376635515529 .04450648419313815 0 .00964605460630136 4.87207346413906
 .0449825617087064 5.94561115480617 .00960177998625824 4.82257332360292 .0453485
230849539 5.60868217545649 .0095485132465358 4.7604206289555 .0455652675472132 5
.26898199283058 .00950922638305076 4.69366001015825 .0456050268913512 4.93277148
289494 .00950140305628924 4.62989293149662 .0454699420815514 4.60188655956403 .0
0952720695710873 4.57468932727471 .0451757296780813 4.27012492822195 .0095757250
1128737 4.5337553922756 .04474649079423705 3.932644988949515 .00962730078086451
 4.51295579368539 .04423128160428275 3.593199661093605 .00965856776945784 4.5149
693979376 .04369921490314995 3.25895782703196 .00965539228648753 4.5386385406972
 .0432075353511713 2.92888683723715 .009620453370474 4.5815624009831 .0427992762
2642155 2.59552899987122 .00956836478335344 4.63970458218097 .04252125801858205
 2.2565506433301 .00952112278516757 4.70572886857605 .0424129443768805 1.9182620
62597805 .00950017742770137 4.77136816413946 .04248312561194095 1.58578788943952
 .00951391014351011 4.83044471518085 .04271893745273365 1.255247955956794 .00955
568390803511 4.87754225401921 .0431009176788879 .920010578638117 .00960885465433
736 4.90656165822884 .0435911296435065 .580372127255567 .00965033887092923 4.913
23993457017 .0441247556890697 .243664212388889 .0096608226838503 4.9037663551552
9 .04450648419313815 0 .00964605460630136 16 155 106 0 ?156 148 157 149 0 0 16 3
1 132 373 0 157 124 149 0 +0 -.0142658477444273 -.00463525491562423 0 -.95105651
6295153 -.3090169943749485 0 .3090169943749485 -.951056516295153 .01 16 157 102
 0 ?158 155 131 132 0 0 16 17 158 0 159 158 158 0 160 157 0 0 +16 131 99 0 ?161
 157 123 124 0 0 16 17 161 0 162 161 161 0 163 131 0 0 +15 162 118 0 161 164 165
 17 163 0 166 163 163 0 161 131 0 0 -15 166 98 0 163 167 168 14 255 167 95 169 ?
170 171 172 19 173 +0 0 170 171 36 15 168 100 0 174 167 175 17 174 0 168 174 174
 0 176 177 0 0 +15 175 101 0 160 167 0 17 160 0 175 160 160 0 158 157 0 0 -17 17
6 0 178 176 176 0 174 177 0 0 -16 177 33 0 ?174 179 180 181 0 0 16 16 179 35 0 ?
182 183 177 184 0 0 16 16 180 30 0 ?185 177 186 187 0 0 16 32 181 338 0 177 187
 184 0 +0 0 0 0 -1 0 0 0 -1 .01051462224238268 .01 31 187 337 0 180 188 181 0 +.
0135 .004 -.0125 0 1 0 0 0 1 .0016 31 184 339 0 179 181 189 0 +.0135 0 .0125 0 1
 0 0 0 1 .0016 31 189 340 0 183 184 190 0 +-.0135 0 -.0125 0 1 0 0 0 1 .0016 16
 183 37 0 ?191 192 179 189 0 0 16 31 190 341 0 192 189 193 0 +.0125 0 -.012 0 1
 0 0 0 -1 .005 16 192 39 0 ?46 194 183 190 0 0 16 30 193 342 0 194 190 195 0 +.0
175 0 .012 0 0 -1 16 194 42 0 ?196 197 192 193 0 0 16 31 195 343 0 197 193 102 0
 +.0125 0 .012 0 1 0 0 0 1 .005 16 197 44 0 ?198 100 194 195 0 0 16 30 102 344 0
 100 195 101 0 +-.0125 0 .017 1 0 0 16 100 46 0 ?199 98 197 102 0 0 16 17 199 0
 200 201 61 56 96 100 0 202 +15 200 76 0 199 203 0 17 201 0 200 204 199 205 58 1
19 0 206 -17 61 0 200 199 204 59 207 117 0 97 +17 96 0 89 75 202 59 199 100 0 0
 -17 202 0 89 96 208 56 198 197 0 0 -17 208 0 89 202 93 53 196 194 0 0 -17 198 0
 209 210 58 53 202 197 0 208 +15 209 79 0 198 211 0 17 210 0 209 212 198 213 55
 121 0 214 -17 58 0 209 198 212 56 201 119 0 199 +17 212 0 209 58 210 205 214 21
5 0 201 -18 205 19 0 212 213 216 217 ?16 17 214 0 218 219 206 213 212 215 0 0 +1
6 215 20 0 ?214 220 221 222 0 0 16 16 220 22 0 ?219 223 215 224 0 0 16 16 221 18
 0 ?206 215 225 226 0 0 16 31 222 332 0 215 226 224 0 +.0125 .004 .012 0 1 0 0 0
 1 .005 30 226 331 0 221 227 222 0 +-.0125 .004 .017 1 0 0 30 224 333 0 220 222
 228 0 +.0175 .004 .012 0 0 -1 31 228 334 0 223 224 229 0 +-.0135 .004 -.0125 0
 1 0 0 0 1 .0016 16 223 24 0 ?230 231 220 228 0 0 16 31 229 335 0 231 228 188 0
 +-.0135 .004 .0125 0 1 0 0 0 1 .0016 16 231 26 0 ?232 186 223 229 0 0 16 31 188
 336 0 186 229 187 0 +.0135 .004 .0125 0 1 0 0 0 1 .0016 16 186 28 0 ?233 180 23
1 188 0 0 16 17 233 0 234 233 233 0 235 186 0 0 +15 234 90 0 233 236 237 17 235
 0 238 235 235 0 233 186 0 0 -15 238 27 0 235 29 239 14 29 5 240 ?94 0 218 19 24
1 -0 0 94 0 36 15 239 29 0 242 29 0 17 242 0 239 242 242 0 185 180 0 0 -17 185 0
 243 185 185 0 242 180 0 0 +15 243 93 0 185 171 244 14 171 92 245 ?167 236 243 1
9 246 -0 0 167 236 36 15 244 94 0 247 171 0 17 247 0 244 247 247 0 110 108 0 0 -
17 110 0 248 110 110 0 247 108 0 0 +15 248 57 0 110 94 0 14 94 31 249 ?250 29 17
8 19 251 +252 252 250 29 36 81 1 249 438 253 94 254 0 240 255 256 14 250 59 255
 ?257 94 258 19 259 +0 0 257 94 36 15 178 32 0 176 94 260 50 255 251 233 0 252 2
41 259 0 +.0125 0 -.012 0 -1 0 0 0 -1 14 252 115 261 ?164 262 263 19 251 +94 94
 164 262 36 13 36 4 0 0 0 0 0 0 23 29 81 1 261 470 253 252 264 0 265 266 267 14
 164 117 266 ?268 252 162 19 137 -268 268 268 252 36 14 262 107 265 ?252 170 269
 19 270 -0 0 252 170 36 15 263 116 0 37 252 0 17 37 0 263 37 37 0 271 24 0 0 +17
 271 0 272 271 271 0 37 24 0 0 -15 272 112 0 271 262 273 15 273 114 0 156 262 0
 17 156 0 273 156 156 0 274 155 0 0 +17 274 0 275 274 274 0 156 155 0 0 -15 275
 105 0 274 170 0 14 170 103 276 ?262 167 159 19 277 +0 0 262 167 36 81 1 276 466
 253 170 278 0 169 265 279 15 159 104 0 158 170 275 50 277 303 0 170 173 270 0 +
0 -.0142658477444273 -.00463525491562423 0 -.951056516295153 -.3090169943749485
 0 .3090169943749485 -.951056516295153 51 173 298 0 167 246 277 0 +0 .0315921058
6301 .0102648974403671 0 -.951056516295153 -.3090169943749485 .01 0 .30901699437
49485 -.951056516295153 51 270 308 0 262 277 137 0 +0 .03159210586301 .010264897
4403671 0 -.951056516295153 -.3090169943749485 .008 0 .3090169943749485 -.951056
516295153 51 137 317 0 268 270 125 0 +-.0175 -.0102658477444273 -.00333557613069
26 1 0 0 .0016 0 0 -1 14 268 120 280 ?0 164 281 19 137 -164 164 0 164 36 81 1 28
0 474 253 268 282 0 266 0 283 15 281 121 0 130 268 284 17 130 0 281 130 130 0 28
5 123 0 0 +15 284 122 0 286 268 0 17 286 0 284 286 286 0 154 148 0 0 -17 154 0 2
69 154 154 0 286 148 0 0 +15 269 108 0 154 262 287 15 287 110 0 288 262 272 17 2
88 0 287 288 288 0 289 38 0 0 +17 289 0 165 289 289 0 288 38 0 0 -16 38 111 0 ?2
88 24 148 33 0 0 16 15 165 119 0 289 164 0 17 285 0 172 285 285 0 130 123 0 0 -1
5 172 96 0 285 167 166 80 7 CCCCCDI12 legal_owners0 16 1 lCZ1 253 290 291 8015 0
 0 0 0 3 5 0 0 0 FFFFTFFFFFFFFFFF2 81 1 282 473 292 268 293 280 294 0 295 81 1 2
66 472 253 164 294 0 261 280 296 83 255 1 283 0 81 1 294 471 292 164 297 266 264
 282 298 83 1 296 0 80 1 292 0 299 8001 0 0 0 0 3 5 0 0 0 FFFFTFTFFFFFFFFF2 81 1
 297 399 300 164 0 294 301 302 303 81 1 264 469 292 252 301 261 304 294 305 83 3
 298 .1019607843137254 .0941176470588235 .0941176470588235 81 1 301 398 300 252
 0 264 306 297 307 81 1 304 467 292 262 302 265 278 264 308 83 3 305 .1019607843
137254 .0941176470588235 .0941176470588235 81 1 302 400 300 262 0 304 297 309 31
0 81 1 265 468 253 262 304 0 276 261 311 81 1 278 465 292 170 309 276 312 304 31
3 83 3 308 .1019607843137254 .0941176470588235 .0941176470588235 81 1 309 401 30
0 170 0 278 302 293 314 81 1 312 463 292 167 315 169 316 278 317 83 3 313 .10196
07843137254 .0941176470588235 .0941176470588235 81 1 315 393 300 167 0 312 318 3
19 320 81 1 169 464 253 167 312 0 245 276 321 81 1 316 461 292 171 322 245 323 3
12 324 83 3 317 .1019607843137254 .0941176470588235 .0941176470588235 81 1 322 3
95 300 171 0 316 319 325 326 81 1 245 462 253 171 316 0 327 169 328 81 1 323 459
 292 236 329 327 330 316 331 83 3 324 .1019607843137254 .0941176470588235 .09411
76470588235 14 236 89 327 ?171 332 234 19 333 -0 0 171 332 36 81 1 329 403 300 2
36 0 323 293 334 335 81 1 327 460 253 236 323 0 336 245 337 81 1 330 457 292 332
 334 336 338 323 339 83 3 331 .1019607843137254 .0941176470588235 .0941176470588
235 14 332 86 336 ?236 340 341 19 342 -0 0 236 340 36 81 1 334 404 300 332 0 330
 329 343 344 81 1 336 458 253 332 330 0 345 327 346 81 1 338 455 292 340 343 345
 347 330 348 83 3 339 .1019607843137254 .0941176470588235 .0941176470588235 14 3
40 83 345 ?332 349 350 19 351 -0 0 332 349 36 81 1 343 405 300 340 0 338 334 352
 353 81 1 345 456 253 340 338 0 354 336 355 81 1 347 453 292 349 352 354 356 338
 357 83 3 348 .1019607843137254 .0941176470588235 .0941176470588235 14 349 81 35
4 ?340 211 358 19 359 -0 0 340 211 36 81 1 352 406 300 349 0 347 343 360 361 81
 1 354 454 253 349 347 0 362 345 363 81 1 356 451 292 211 360 362 364 347 365 83
 3 357 .1019607843137254 .0941176470588235 .0941176470588235 14 211 78 362 ?349
 203 209 19 366 +0 0 349 203 36 81 1 360 407 300 211 0 356 352 367 368 81 1 362
 452 253 211 356 0 369 354 370 81 1 364 449 292 203 367 369 371 356 372 83 3 365
 .1019607843137254 .0941176470588235 .0941176470588235 14 203 75 369 ?211 373 20
0 19 374 -0 0 211 373 36 81 1 367 408 300 203 0 364 360 375 376 81 1 369 450 253
 203 364 0 377 362 378 81 1 371 447 292 373 375 377 379 364 380 83 3 372 .101960
7843137254 .0941176470588235 .0941176470588235 14 373 72 377 ?203 71 381 19 382
 +0 0 203 71 36 81 1 375 409 300 373 0 371 367 383 384 81 1 377 448 253 373 371
 0 385 369 386 81 1 379 445 292 71 383 385 387 371 388 83 3 380 .101960784313725
4 .0941176470588235 .0941176470588235 14 71 69 385 ?373 87 65 19 389 -0 0 373 87
 36 81 1 383 410 300 71 0 379 375 390 391 81 1 385 446 253 71 379 0 392 377 393
 81 1 387 443 292 87 390 392 394 379 395 83 3 388 .1019607843137254 .09411764705
88235 .0941176470588235 14 87 66 392 ?71 257 79 19 396 +0 0 71 257 36 81 1 390 4
11 300 87 0 387 383 397 398 81 1 392 444 253 87 387 0 399 385 400 81 1 394 441 2
92 257 397 399 401 387 402 83 3 395 .1019607843137254 .0941176470588235 .0941176
470588235 14 257 63 399 ?87 250 41 19 403 -0 0 87 250 36 81 1 397 412 300 257 0
 394 390 0 404 81 1 399 442 253 257 394 0 255 392 405 81 1 401 439 292 250 306 2
55 254 394 406 83 3 402 .1019607843137254 .0941176470588235 .0941176470588235 81
 1 306 397 300 250 0 401 325 301 407 81 1 255 440 253 250 401 0 249 399 408 81 1
 254 437 292 94 325 249 409 401 410 83 3 406 .1019607843137254 .0941176470588235
 .0941176470588235 81 1 325 396 300 94 0 254 322 306 411 81 1 409 435 292 29 319
 240 0 254 412 83 3 410 .1019607843137254 .0941176470588235 .0941176470588235 81
 1 319 394 300 29 0 409 315 322 413 81 1 240 436 253 29 409 0 0 249 414 83 3 412
 .1019607843137254 .0941176470588235 .0941176470588235 83 1 414 0 80 1 300 415 4
16 9000 0 0 0 0 3 6 0 0 0 TFTTTTTTFFFFTTFF3 84 255 13 413 {68}@22@{1;4}79 255 25
 416 H3DX_BRIDGE/PERSISTENT_ID84 13 411 {68}@22@{0;4}83 1 408 0 84 12 407 {68}@2
2@{14}83 1 405 0 84 12 404 {68}@22@{10}15 41 64 0 42 257 0 50 403 243 0 257 259
 396 0 +-.0125 .004 -.017 0 0 1 1 0 0 51 259 238 0 250 251 403 0 +.0125 .004 -.0
12 0 -1 0 .005 0 0 -1 51 396 248 0 87 403 389 0 +-.0125 .004 -.012 0 -1 0 .005 0
 0 -1 50 389 253 0 71 396 382 0 +-.0175 .004 .012 1 0 0 0 0 -1 51 382 258 0 373
 389 374 0 +-.0125 .004 .012 0 -1 0 .005 0 0 -1 50 374 263 0 203 382 366 0 +-.01
25 .004 .017 0 0 -1 -1 0 0 51 366 268 0 211 374 359 0 +.0125 .004 .012 0 -1 0 .0
05 0 0 -1 50 359 273 0 349 366 351 0 +.0175 .004 .012 -1 0 0 0 0 1 51 351 278 0
 340 359 342 0 +-.0135 .004 -.0125 0 -1 0 .0016 0 0 -1 51 342 283 0 332 351 333
 0 +-.0135 .004 .0125 0 -1 0 .0016 0 0 -1 51 333 288 0 236 342 246 0 +.0135 .004
 .0125 0 -1 0 .0016 0 0 -1 51 246 293 0 171 333 173 0 +.0135 .004 -.0125 0 -1 0
 .0016 0 0 -1 17 42 0 41 88 39 34 90 91 0 85 +17 88 0 41 43 42 417 47 83 0 418 -
17 90 0 89 93 85 25 42 91 0 0 -17 93 0 89 208 90 51 46 192 0 0 -18 51 40 0 196 5
3 419 49 ?16 17 46 0 258 44 114 25 93 192 0 90 +15 258 60 0 46 250 0 17 44 0 258
 420 46 421 39 45 0 422 -17 114 0 258 46 420 51 423 112 0 93 +17 420 0 258 114 4
4 419 422 424 0 219 -17 423 0 358 425 196 419 114 112 0 420 -15 358 82 0 196 349
 0 17 425 0 358 55 423 213 219 220 0 210 -17 196 0 358 423 55 51 208 194 0 114 +
18 419 8 0 423 51 213 426 ?16 18 213 21 0 425 419 205 52 ?16 29 426 206 0 419 0
 427 .0175 .004 -.012 29 427 207 0 421 426 428 .0125 .004 -.017 18 421 9 0 43 41
7 0 427 ?16 29 428 208 0 417 427 429 -.0125 .004 -.017 18 417 11 0 80 76 421 428
 ?16 29 429 209 0 76 428 430 -.0175 .004 -.012 18 76 13 0 67 431 417 429 ?16 29
 430 210 0 431 429 432 -.0175 .004 .012 18 431 15 0 433 216 76 430 ?16 29 432 21
1 0 216 430 217 -.0125 .004 .017 18 216 17 0 204 205 431 432 ?16 29 217 212 0 20
5 432 52 .0125 .004 .017 29 52 213 0 213 217 49 .0175 .004 .012 17 204 0 200 61
 201 216 206 221 0 207 -17 206 0 218 214 434 205 204 221 0 0 +17 207 0 381 433 9
7 216 61 117 0 434 -15 381 73 0 97 373 0 17 433 0 381 63 207 431 434 225 0 72 -1
7 97 0 381 207 63 59 75 98 0 96 +17 434 0 218 206 77 216 433 225 0 0 +15 218 6 0
 422 29 435 17 77 0 218 434 81 431 67 78 0 0 +16 225 16 0 ?434 221 78 227 0 0 16
 16 78 14 0 ?77 225 436 437 0 0 16 31 227 330 0 225 437 226 0 +-.0125 .004 .012
 0 1 0 0 0 -1 .005 30 437 329 0 78 438 227 0 +-.0175 .004 .012 0 0 1 31 438 328
 0 436 439 437 0 +-.0125 .004 -.012 0 1 0 0 0 -1 .005 16 436 12 0 ?81 78 440 438
 0 0 16 30 439 327 0 440 441 438 0 +-.0125 .004 -.017 -1 0 0 16 440 10 0 ?418 43
6 424 439 0 0 16 31 441 326 0 424 0 439 0 +.0125 .004 -.012 0 1 0 0 0 -1 .005 16
 424 7 0 ?422 440 0 441 0 0 16 17 422 0 218 418 219 421 420 424 0 0 +17 418 0 21
8 81 422 417 43 440 0 0 +17 219 0 218 422 214 419 425 220 0 0 +17 81 0 218 77 41
8 76 80 436 0 0 +17 43 0 41 39 88 421 418 440 0 44 -17 80 0 79 47 68 417 81 436
 0 88 -15 435 23 0 442 29 443 17 442 0 435 442 442 0 230 223 0 0 -15 443 25 0 44
4 29 238 17 444 0 443 444 444 0 232 231 0 0 -17 232 0 341 232 232 0 444 231 0 0
 +15 341 87 0 232 332 445 15 445 88 0 446 332 0 17 446 0 445 446 446 0 107 105 0
 0 -17 107 0 95 107 107 0 446 105 0 0 +15 95 55 0 107 94 248 17 230 0 350 230 23
0 0 442 223 0 0 +15 350 84 0 230 340 447 15 447 85 0 448 340 0 17 448 0 447 448
 448 0 191 183 0 0 -17 191 0 449 191 191 0 448 183 0 0 +15 449 36 0 191 94 89 17
 63 0 381 97 433 62 72 82 0 66 +17 72 0 65 67 66 431 63 82 0 77 -17 55 0 358 196
 425 53 210 121 0 198 +83 1 400 0 84 12 398 {68}@22@{11}83 1 393 0 84 11 391 {68
}@22@{d}83 1 386 0 84 12 384 {68}@22@{12}83 1 378 0 84 11 376 {68}@22@{e}83 1 37
0 0 84 12 368 {68}@22@{13}83 1 363 0 84 11 361 {68}@22@{f}83 1 355 0 84 11 353 {
68}@22@{6}83 1 346 0 84 11 344 {68}@22@{5}83 1 337 0 81 1 293 402 300 268 0 282
 309 329 450 84 11 335 {68}@22@{8}84 22 450 {68}@53@{3;ffffffff;0}83 1 328 0 84
 11 326 {68}@22@{7}83 1 321 0 81 1 318 392 300 16 0 26 0 315 451 84 22 320 {68}@
3d@{1;ffffffff;0}81 1 26 433 452 16 318 17 0 0 453 84 3 451 10480 1 452 454 455
 8017 0 0 0 0 0 0 0 0 0 TTTTTTTTTTTTTFTF3 84 11 453 Imported 0179 13 455 SDL/TYS
A_NAME84 15 314 {68}@47@{1;0;0}83 1 311 0 84 22 310 {68}@3d@{2;ffffffff;0}84 13
 307 {68}@22@{0;4}84 22 303 {68}@53@{3;ffffffff;0}79 15 299 SDL/TYSA_COLOUR83 3
 295 .1019607843137254 .0941176470588235 .0941176470588235 79 21 291 SDL/TYSA_TR
ANSLUCENCY83 1 279 0 83 1 267 0 50 241 222 0 29 0 251 0 +.0125 .004 -.012 0 -1 0
 0 0 -1 15 260 34 0 182 94 449 17 182 0 260 182 182 0 456 179 0 0 +17 456 0 237
 456 456 0 182 179 0 0 -15 237 91 0 456 236 0 83 1 256 0 40 20 143 0 1 20 927441
583685513e-19 .3435419644856235 ??.00785394539369864 -.0102658477444273 -.004935
5761306926 .00783841538194416 -.00974534899494645 -.00484854706623263 .007857385
05735175 -.00928152805619425 -.00459697010220063 .00790254193846321 -.0089252657
0024439 -.004208983127924915 .00795540085025176 -.00871215451507247 -.0037177244
64532975 .00799267135821184 -.00867360677820753 -.00317819536474095 .00799770349
994075 -.00881434608189543 -.00266241721656665 .00796957578435649 -.009111545202
68676 -.002227611491305885 .00792000183106613 -.00953588504627767 -.001911794385
02014 .00786920459309306 -.01004913743250876 -.00175032011329094 .00784036254118
832 -.01058902639358682 -.00176855489256996 .00784634703210984 -.011084503617974
92 -.0019608752320583 .00788329112258535 -.01148585051171736 -.00230039824848848
5 .0079358654660787 -.0117576998356302 -.00275732243379689 .00798170806314564 -.
0118651010137469 -.00328669893181021 .00799999259674651 -.01179086617228716 -.00
3819640996891135 .00798364360109918 -.01154974383861706 -.00429035925754616 .007
94025273443436 -.01117013786954316 -.00465552286053359 .0078871225923945 -.01068
479056078136 -.00487975452602953 .00785394539369864 -.0102658477444273 -.0049355
761306926 41 1 144 H?.00785394539369864 -.0102658477444273 -.0049355761306926 41
 1 145 H?.00785394539369864 -.0102658477444273 -.0049355761306926 204 80 146 4 1
.379418952024294 .04450648419313815 0 .02535394539369865 1.36946853637705 .04398
456700579825 .331341358487644 .02533841538194415 1.381692718800742 .043465705522
3247 .66263938187994 .02535738505735175 1.414546060056224 .0430069853185406 .993
35802840056 .0254025419384632 1.465154655663976 .04265249726156545 1.32962243439
6608 .02545540085025175 1.527989315106125 .04244911252443605 1.669318614928205 .
02549267135821185 1.59475780598985 .04242357934319415 2.00503992343256 .02549770
349994075 1.658036683343405 .04257187014530285 2.33571440543611 .025469575784356
5 1.71233417759963 .04287784846571705 2.66784241526932 .02542000183106615 1.7518
71845543105 .04331608219802755 3.005731130884805 .02536920459309305 1.7709033115
2106 .04383518196922255 3.3449786175557 .0253403625411883 1.767104351203735 .044
3658390654185 3.678708299618845 .02534634703210985 1.741818077320075 .0448524610
2606545 4.0087637508901 .02538329112258535 1.69750505780535 .0452522024354244 4.
34261085793308 .0254358654660787 1.63843306207234 .0455179333600389 4.6818359778
3855 .02548170806314565 1.57215677291905 .0456120199854598 5.0197459647632 .0254
999925967465 1.50683935782266 .0455281589609035 5.35182060605136 .02548364360109
92 1.448503866347362 .0452799739894416 5.68253226951933 .02544025273443435 1.402
61201208878 .0448876726640926 6.01825784658815 .0253871225923945 1.3794189520242
94 .04450648419313815 0 .02535394539369865 141 138 124 457 457 125 141 457 122 1
38 138 125 40 20 133 0 1 20 917854523366307e-19 .3413141556157905 ??.00988354482
19351 -.0102658477444273 -.0049355761306926 .00987121876603067 -.009742046974674
28 -.0048474070582788 .00988664389998221 -.0092760181238795 -.00459265103788239
 .0099230644721209 -.00891935819542146 -.004199848017553485 .00996518787260823 -
.00870942523321637 -.003706452075714475 .00999447573686205 -.00867464601774154 -
.003168014007907435 .00999794657237425 -.00881903143548994 -.002652405165126245
 .00997474015677538 -.00912183797922392 -.0022169869938245 .00993467533796414 -.
00955186794536264 -.00190371271313924 .00989455879754249 -.01006676712012076 -.0
0174800978403942 .00987247326516384 -.0106052340370216 -.001771985089403635 .009
87816810960442 -.01110030799281424 -.00197041090484557 .009908530390906 -.011500
41456535496 -.00231781153872423 .00995072675524969 -.0117665426156719 -.00278067
532566511 .00998657288362349 -.01186565417533486 -.00331068871164596 .0099999920
966017 -.01178360607320578 -.003841945220807275 .00998561927792337 -.01153391154
804594 -.0043112882757191 .00994991264976008 -.01114510765458134 -.0046723266722
6567 .00990762431410415 -.01065436223068256 -.00488768968773983 .009883544821935
1 -.0102658477444273 -.0049355761306926 41 1 134 H?.0098835448219351 -.010265847
7444273 -.0049355761306926 41 1 135 H?.0098835448219351 -.0102658477444273 -.004
9355761306926 204 80 136 4 1.418033823034922 .04450648419313815 0 .0273835448219
351 1.410136065834912 .04398107431607 .3335246545248225 .02737121876603065 1.420
084077892772 .0434591306010183 .667014995627046 .0273866438999822 1.446671887595
52 .04299854404323345 1.000157307736022 .0274230644721209 1.487330951658438 .042
64641820055925 1.336871257526918 .02746518787260825 1.53755547290208 .0424469546
876795 1.67571503735645 .02749447573686205 1.591062051088325 .0424249414852177 2
.01194876622637 .02749794657237425 1.64188849896831 .04257837600722085 2.3449598
1718405 .0274747401567754 1.685160576495645 .04289055173208695 2.679036195506015
 .02743467533796415 1.71614213698278 .04333213509630985 3.01684395357547 .027394
5587975425 1.730670472005325 .0438516563432406 3.35533282126207 .027372473265163
85 1.72705257835658 .0443838166040395 3.6902447753712 .02737816810960445 1.70615
466237329 .044871693266792 4.022951980225225 .027408530390906 1.670107718098755
 .0452678288594603 4.35821790980857 .0274507267552497 1.6226231967443 .045525872
6976322 4.69683371617998 .0274865728836235 1.56953907587794 .0456120076051559 5.
03440614277059 .0274999920966017 1.5171602006264 .045519568980079 5.368222547938
19 .0274856192779234 1.47066719161957 .0452613615037934 5.70137481862168 .027449
9126497601 1.434768198525362 .04486118570229375 6.03791190445311 .02740762431410
415 1.418033823034922 .04450648419313815 0 .0273835448219351 19 30 124 0 16 0 23
 19 0 S0 141 32 33 458 458 20 141 458 142 32 32 20 74 4 CI16 index_map_offset0 0
 1 dCCZ20 28 5 0 0 397 26 17 282 280 0 0 0 0 0 0 0 0 0 0 0 0 0 0 0 80 1 6 452 45
9 8038 0 0 0 0 0 0 0 0 0 TTTTTTTTTTTTTFTF10 98 255 11 27 73 109 112 111 114 116
 101 100 32 48 49 79 14 459 SDL/TYSA_UNAME74 20 15 2 0 0 13 10 0 0 0 0 0 0 0 0 0
 0 0 0 0 0 0 0 0 0 81 1 13 1 452 4 0 10 0 0 460 84 16 460 Leg Joint.SLDPRT98 16
 14 76 101 103 32 74 111 105 110 116 46 83 76 68 80 82 84 74 20 9 2 0 0 7 2 0 0
 0 0 0 0 0 0 0 0 0 0 0 0 0 0 0 0 81 1 7 1 452 1 0 2 0 0 461 84 4 461 root98 4 8
 114 111 111 116 1 0 
