**ABCDEFGHIJKLMNOPQRSTUVWXYZabcdefghijklmnopqrstuvwxyz**************************
**PARASOLID !"#$%&'()*+,-./:;<=>?@[\]^_`{|}~0123456789**************************
**PART1;
MC=unknown;
MC_MODEL=unknown;
MC_ID=unknown;
OS=iOS;
OS_RELEASE=unknown;
FRU=Shapr3D Zrt.;
APPL=Shapr3D;
SITE=Budapest, Hungary;
USER=unknown;
FORMAT=text;
GUISE=transmit;
KEY=/private/var/mobile/Containers/Data/Application/E2818F9A-2C52-4D1E-8716-1328FA984AC9/tmp/export/temp_export;
FILE=/private/var/mobile/Containers/Data/Application/E2818F9A-2C52-4D1E-8716-1328FA984AC9/tmp/export/temp_export;
DATE=2022-09-03 23:46 (UTC);
**PART2;
SCH=SCH_3401153_34101;
USFLD_SIZE=16;
**PART3;
**END_OF_HEADER*****************************************************************
T51 : TRANSMIT FILE created by modeller version 340115323 SCH_3401153_34101_1300
6231 0 10 21 CCCCI7 lattice222 0 CCCI4 mesh1006 0 I8 polyline1008 0 CCCCCCCCCCA1
6 mesh_offset_data206 0 Z1 3 2 3 0 0 0 0 0 0 0 0 1e3 1e-8 0 0 4 1 0 1 5 0 81 255
 1 2 2 6 1 7 0 0 0 8 70 11 CI9 list_type0 0 1 uI10 notransmit0 0 1 lCCCDCCDI12 f
inger_index0 0 1 dI12 finger_block1012 0 CZ3 0 4 T1 0 0 2 20 1 9 9 11 255 5 3 0
 1 4 0 1 0 0 0 0 10 4 3 10 11 0 0 0 0 0 0 0 0 1e3 1e-8 5 1 0 1 0 1 12 0 81 1 10
 2 6 4 13 0 0 0 14 70 11 0 4 T4 0 0 2 20 1 15 15 11 12 3 0 1 16 0 4 0 0 0 0 12 3
6 CCCI7 lattice222 0 CCCI4 mesh1006 0 I8 polyline1008 0 CCCCCCCDI5 owner1040 0 C
CCI16 boundary_lattice222 0 CCCI13 boundary_mesh1006 0 I17 boundary_polyline1008
 0 CCCA16 index_map_offset0 0 1 dA9 index_map82 0 A17 node_id_index_map82 0 A20
 schema_embedding_map82 0 A5 child12 0 A14 lowest_node_id0 0 1 dA16 mesh_offset_
data206 0 Z16 149 17 18 0 0 0 0 0 0 0 1e3 1e-8 12 0 0 1 0 1 1 19 0 20 21 0 0 0 2
2 23 0 0 0 0 0 0 0 0 81 1 17 137 6 16 24 0 0 0 25 70 18 0 4 T16 0 0 5 20 1 26 26
 13 255 19 37 0 16 0 27 0 0 28 0 51 255 20 107 0 16 29 0 30 -.203 0 0 -1 0 0 .00
7 0 0 1 38 12 CCCCCCCCCCCA17 intersection_data204 0 Z21 117 0 23 31 0 0 +20 29 3
2 33 34 35 19 9 CCCCCCI5 frame230 0 CA5 owner12 0 Z22 35 0 16 28 0 36 0 V0 16 25
5 23 26 0 ?37 0 38 21 0 0 16 17 255 37 0 39 37 37 0 40 23 0 0 +16 38 24 0 ?41 23
 42 31 0 0 16 17 41 0 43 41 41 0 44 38 0 0 +16 42 19 0 ?45 38 46 47 0 0 16 38 31
 111 0 38 47 21 0 +20 29 48 49 50 51 38 47 104 0 42 52 31 0 +53 29 54 55 56 57 5
1 29 94 0 16 53 20 58 +.008 -.008 2718715894107125e-32 0 1 0 .0016 0 0 1 40 255
 20 48 0 1 20 936048153131176e-19 .345334066130668 ??.008 -.00681469001496032 .0
01600000000000025 .00852171308262653 -.00683463126588286 .00151255263029635 .008
98447407215721 -.00688543311627887 .001261273483924194 .00934488883555657 -.0069
4613028815359 .000866760647465804 .00955711497824682 -.00699032238566152 .000367
9578026342865 .00959142711007186 -.00699804545903152 -.0001654078393799215 .0094
5272280216426 -.0069678119621534 -.000670519544884419 .00915680164789259 -.00691
217694019526 -.001105355122769572 .00872532678369085 -.00685318166570385 -.00142
6149030382384 .00820810928571483 -.00681786692997163 -.001586408057594005 .00767
792661443209 -.00682229662692053 -.001567248778691095 .00719048034729907 -.00686
260315537108 -.00138010069628664 .00678460303879616 -.00692222433711185 -.001040
581677090462 .00650742140498543 -.00697623041923758 -.000576375864956435 .006400
72028935259 -.00699983539755675 -480042405574198e-19 .00647191014454217 -.006983
91427541555 .000474279868481538 .00670666921018226 -.00693633221031768 .00094196
3623559552 .00708771139590442 -.00687548329189757 .001314431246903918 .007578812
89524714 -.00682769350346147 .001543567757757975 .008 -.00681469001496032 .00160
0000000000025 41 3 CI8 term_use0 0 1 cCZ1 49 H?.008 -.00681469001496032 .0016000
00000000025 41 1 50 H?.008 -.00681469001496032 .001600000000000025 204 2 17 INTE
RSECTION_DATA17 Intersection data7 uv_type0 0 1 u6 values0 1 1 fT80 51 4 4.94299
899167081 .195 0 .001185309985039678 4.93018572843559 .1944782869173735 .3321440
84398739 .001165368734117138 4.89356038184977 .194015525927843 .662761779244386
 .001114566883721132 4.83653054466885 .1936551111644435 .998307876299854 .001053
869711846412 4.76497861833996 .193442885021753 1.338745743729854 .00100967761433
848 4.68875708950381 .193408572889928 1.674361261477015 .00100195454096848 4.616
45338224263 .193547277197836 2.003222317013395 .001032188037846602 4.55381739499
831 .1938431983521075 2.333456164098615 .001087823059804744 4.50721695956114 .19
4274673216309 2.67109576472521 .00114681833429615 4.48377300997546 .194791890714
285 3.0111547854184 .001182133070028366 4.486582252873875 .195322073385568 3.344
273341022495 .001177703373079468 4.5139315824113 .195809519652701 3.672075381032
345 .001137396844628918 4.56318143917678 .196215396961204 4.004326051439785 .001
07777566288815 4.62995624560678 .1964925785950145 4.34386927663257 .001023769580
762422 4.70553117798064 .1965992797106475 4.68238182701924 .001000164602443248 4
.78019519394215 .196528089855458 5.01333612711135 .001016085724584446 4.84736468
025533 .196293330789818 5.34187239571111 .00106366778968232 4.90128624791734 .19
59122886040955 5.67645990293218 .001124516708102432 4.9347259622109 .19542118710
4753 6.01680417268341 .001172306496538526 4.94299899167081 .195 0 .0011853099850
39678 51 53 93 0 16 59 29 60 -.203 0 0 -1 0 0 .008 0 0 1 141 255 58 21 61 62 29
 141 61 52 63 58 29 141 62 31 58 63 29 141 63 47 62 61 29 38 52 98 0 46 64 47 0
 +53 29 65 66 67 68 16 46 17 0 ?69 42 70 52 0 0 16 31 255 64 92 0 70 71 52 0 +0
 0 0 1 0 0 0 0 -1 .007 40 20 65 0 1 20 926859778449567e-19 .3437057242059565 ??.
0064 -.008 0 .0064881338308051 -.00798284030364857 .000523699041858918 .00674169
471397959 -.00793872358712828 .000988265049049652 .00713775523238953 -.007885649
37334089 .001347788544515946 .00763613781119138 -.00784680799385613 .00155807711
8616235 .00817024425546756 -.00784021575637556 .001590916997671585 .008677355571
92356 -.0078675797149324 .00144954800858205 .00911263643247145 -.007916941317886
77 .001149800056156402 .00943081606218077 -.00796788771280033 .00071607638992328
8 .00958756804852521 -.00799752288578771 .000199067052276077 .00956508328681866
 -.00799308987155024 -.0003324369193108565 .00937264994915039 -.0079576483889967
5 -.00082209009062109 .00902780747993927 -.00790546571783214 -.00122621848957713
4 .00856151096295445 -.00785845370041194 -.001498234106700912 .00803258782519399
 -.00783843491816772 -.001599668101091295 .00750922794914332 -.00785371613988577
 -.00152287320355236 .00704171726657221 -.00789672753722616 -.001281286151807658
 .00667323505138407 -.00794986196288187 -.000894256546592802 .00645108887628445
 -.00798993902787561 -.0004010914245283545 .0064 -.008 0 41 1 66 H?.0064 -.008 0
 41 1 67 H?.0064 -.008 0 204 80 68 4 4.71238898038469 .1966 4.71238898038467 0 4
.77789820558543 .196511866169195 5.04584634781637 1715969635142715e-20 4.8362384
8383427 .1962583052860205 5.37815997218232 612764128717237e-19 4.88166987702142
 .1958622447676105 5.71405104657365 .0001143506266591092 4.90840137189664 .19536
38621888085 6.05376416803873 .0001531920061438665 4.91258825037719 .194829755744
5325 .106604462904294 .0001597842436244395 4.8945888853315 .1943226444280765 .43
7136794166828 .000132420285067601 4.85661346271221 .1938873635675285 .7689732684
46445 830586821132292e-19 4.8020184866 .1935691839378195 1.106775093839478 32112
28719967285e-20 4.73727493052809 .193412431951475 1.44605617572924 2477114212293
13e-20 4.67082239684688 .1934349167131815 1.780094126150115 691012844975664e-20
 4.60944599647966 .1936273500508495 2.110411992279105 423516110032475e-19 4.5585
0505255525 .1939721925200605 2.44399335485793 94534282167864e-18 4.5239973115913
7 .1944384890370455 2.78301324438964 .0001415462995880586 4.51107340227454 .1949
67412174806 3.121223854411115 .000161565081832281 4.52086100681549 .195490772050
8565 3.45335082714593 .0001462838601142338 4.5515354580906 .195958282733428 3.78
375282176723 .0001032724627738416 4.6003728028377 .196326764948616 4.11931782672
0085 501380371181331e-19 4.66223152418988 .1965489111237155 4.45900414959221 100
6097212439236e-20 4.71238898038469 .1966 4.71238898038467 0 16 70 14 0 ?72 46 73
 64 0 0 16 31 71 91 0 73 74 64 0 +0 0 0 1 0 0 0 0 -1 .008 16 73 12 0 ?75 70 76 7
1 0 0 16 31 74 90 0 76 77 71 0 +.203 0 0 1 0 0 0 0 -1 .007 16 76 9 0 ?78 73 79 7
4 0 0 16 31 77 89 0 79 0 74 0 +.203 0 0 1 0 0 0 0 -1 .008 16 79 7 0 ?80 76 0 77
 0 0 16 17 80 0 81 80 80 0 82 79 0 0 +15 255 81 6 0 80 27 83 17 82 0 84 82 82 0
 80 79 0 0 -15 84 20 0 82 85 86 14 255 85 15 87 ?88 89 90 19 91 +0 0 88 89 36 15
 86 21 0 75 85 0 17 75 0 86 75 75 0 92 73 0 0 +17 92 0 93 92 92 0 75 73 0 0 -15
 93 11 0 92 89 94 14 89 10 95 ?85 27 93 19 96 -0 0 85 27 36 15 94 13 0 72 89 0 1
7 72 0 94 72 72 0 97 70 0 0 +17 97 0 98 97 97 0 72 70 0 0 -15 98 28 0 97 88 0 14
 88 22 99 ?100 85 101 19 102 -0 0 100 85 36 81 1 99 145 103 88 104 0 87 105 106
 14 100 29 105 ?107 88 39 19 59 -107 107 107 88 36 15 101 23 0 44 88 108 51 102
 75 0 88 91 59 0 +.203 0 0 -1 0 0 .007 0 0 1 13 36 4 0 0 0 0 0 0 22 27 14 27 5 1
09 ?89 0 81 19 110 +0 0 89 0 36 81 1 109 139 103 27 111 0 0 95 112 50 255 110 54
 0 27 0 96 0 +.203 0 0 1 0 0 0 0 -1 50 96 65 0 89 110 91 0 +0 0 0 1 0 0 0 0 -1 5
1 91 70 0 85 96 102 0 +.203 0 0 -1 0 0 .008 0 0 1 80 7 CCCCCDI12 legal_owners0 1
6 1 lCZ1 103 113 114 8015 0 0 0 0 3 5 0 0 0 FFFFTFFFFFFFFFFF2 81 1 111 138 115 2
7 116 109 0 117 118 81 1 95 141 103 89 117 0 109 87 119 83 255 1 112 0 81 1 117
 140 115 89 120 95 111 121 122 81 1 87 143 103 85 121 0 95 99 123 83 1 119 0 81
 1 121 142 115 85 124 87 117 104 125 83 1 123 0 80 1 115 0 126 8001 0 0 0 0 3 5
 0 0 0 FFFFTFTFFFFFFFFF2 81 1 124 124 127 85 0 121 128 120 129 81 1 104 144 115
 88 130 99 121 131 132 83 3 125 .0784313725490196 .0784313725490196 .07843137254
90196 81 1 130 126 127 88 0 104 120 133 134 81 1 131 146 115 100 133 105 104 135
 136 83 3 132 .0784313725490196 .0784313725490196 .0784313725490196 81 1 133 127
 127 100 0 131 130 116 137 81 1 105 147 103 100 131 0 99 138 139 81 1 135 148 11
5 107 140 138 131 0 141 83 3 136 .0784313725490196 .0784313725490196 .0784313725
490196 14 107 32 138 ?0 100 43 19 59 -100 100 0 100 36 81 1 140 129 127 107 0 13
5 116 0 142 81 1 138 149 103 107 135 0 105 0 143 83 3 141 .0784313725490196 .078
4313725490196 .0784313725490196 83 1 143 0 80 1 127 144 145 9000 0 0 0 0 3 6 0 0
 0 TFTTTTTTFFFFTTFF3 81 1 116 128 127 27 0 111 133 140 146 84 255 22 142 {66}@26
@{2;ffffffff;0}84 13 146 {66}@1b@{1;0}79 255 25 145 H3DX_BRIDGE/PERSISTENT_ID15
 43 33 0 41 107 147 51 59 80 0 107 102 53 0 +.008 -.008 2718715894107125e-32 0 1
 0 .0016 0 0 1 15 147 34 0 148 107 0 17 148 0 147 148 148 0 69 46 0 0 -17 69 0 9
0 69 69 0 148 46 0 0 +15 90 16 0 69 85 149 15 149 18 0 45 85 84 17 45 0 149 45 4
5 0 150 42 0 0 +17 150 0 151 150 150 0 45 42 0 0 -15 151 31 0 150 100 0 83 1 139
 0 84 22 137 {66}@26@{2;ffffffff;0}81 1 120 125 127 89 0 117 124 130 152 84 11 1
34 {66}@1b@{1}84 13 152 {66}@1b@{0;0}81 1 128 123 127 16 0 24 0 124 153 84 11 12
9 {66}@1b@{2}81 1 24 136 154 16 128 17 0 0 155 84 3 153 10280 1 154 156 157 8017
 0 0 0 0 0 0 0 0 0 TTTTTTTTTTTTTFTF3 84 11 155 Imported 0179 13 157 SDL/TYSA_NAM
E79 15 126 SDL/TYSA_COLOUR83 3 122 .0784313725490196 .0784313725490196 .07843137
25490196 83 3 118 .0784313725490196 .0784313725490196 .0784313725490196 79 21 11
4 SDL/TYSA_TRANSLUCENCY17 44 0 101 44 44 0 41 38 0 0 -15 108 25 0 40 88 158 17 4
0 0 108 40 40 0 37 23 0 0 -15 158 27 0 78 88 98 17 78 0 158 78 78 0 159 76 0 0 +
17 159 0 83 159 159 0 78 76 0 0 -15 83 8 0 159 27 0 15 39 30 0 37 100 151 83 1 1
06 0 141 60 47 160 160 53 141 160 52 60 60 53 40 20 54 0 1 20 927656596224321e-1
9 .343442242169524 ??.008 .00783836717690617 .001600000000000025 .00747642540819
503 .00785583416023936 .00151190927201877 .00701197482551634 .00790039199947784
 .001258493645032256 .00665228707186108 .00795338482261941 .000862362953359685 .
00644195770942235 .0079917141952918 .000364011292093428 .00640905828470704 .0079
9819326732352 -.0001700131128491765 .006550519836151 .00797126042388478 -.000677
500741407876 .00685041999173314 .00792221775738378 -.001112863785282408 .0072840
329821172 .0078709979526548 -.0014308707940635 .00780117404045657 .0078408884549
0028 -.001587598260836645 .00833260525730586 .00784542071894093 -.00156504752094
3825 .00882187928652826 .00788133780278604 -.001372776179271674 .009226071395806
88 .00793367828107593 -.001027982943625096 .00949820052903395 .00798026345587648
 -.000561600547366533 .00959966287049265 .00799993258091797 -3284358030447035e-2
0 .00952287765492036 .00798493308374314 .000490758237979063 .00928108888978379 .
00794236669661678 .000958546428960332 .00889410536232103 .00788919668907622 .001
326866836223156 .00840093036305882 .00784861421883012 .00154895282174042 .008 .0
0783836717690617 .001600000000000025 41 1 55 H?.008 .00783836717690617 .00160000
0000000025 41 1 56 H?.008 .00783836717690617 .001600000000000025 204 80 57 4 1.3
69438406004562 .195 0 .01583836717690615 1.380664183092756 .195523574591805 5.94
981025409715 .01585583416023935 1.412828456015484 .1959880251744835 5.6176049341
5748 .01590039199947785 1.46279109756624 .196347712928139 5.28161093209397 .0159
533848226194 1.525279199780175 .1965580422905775 4.94190581758142 .0159917141952
918 1.5920495658802 .196590941715293 4.60592980527523 .01599819326732355 1.65558
547731884 .196449480163849 4.275152035770475 .0159712604238848 1.7103568994104 .
196149580008267 3.94321796054102 .0159222177573838 1.750622801798375 .1957159670
17883 3.605537447685275 .0158709979526548 1.770572318331915 .1951988259595435 3.
266180943172515 .0158408884549003 1.76769710733006 .194667394742694 2.9321872945
15735 .01584542071894095 1.74324683517252 .194178120713472 2.60213055559026 .015
88133780278605 1.6996504681066 .193773928604193 2.268538727438655 .0159336782810
7595 1.64105418169283 .193501799470966 1.92943552999891 .0159802634558765 1.5749
01785865725 .1934003371295075 1.591325006343715 .01599993258091795 1.50941300648
411 .1934771223450795 1.259047223499786 .01598493308374315 1.450689461271104 .19
3718911110216 .928430337434144 .0159423666966168 1.404167969009322 .194105894637
679 .592957208487659 .0158891966890762 1.375946604974066 .194599069636941 .25328
08485180715 .01584861421883015 1.369438406004562 .195 0 .01583836717690615 19 28
 36 0 16 0 22 19 0 S0 40 20 32 0 1 20 936048153131183e-19 .345334066130669 ??.00
8 .00681469001496033 .001600000000000025 .00747828691737349 .00683463126588286 .
00151255263029635 .0070155259278428 .00688543311627887 .001261273483924194 .0066
5511116444344 .00694613028815359 .000866760647465807 .0064428850217532 .00699032
238566152 .00036795780263429 .00640857288992815 .00699804545903152 -.00016540783
9379919 .00654727719783576 .0069678119621534 -.000670519544884418 .0068431983521
0742 .00691217694019526 -.00110535512276957 .00727467321630917 .0068531816657038
5 -.001426149030382384 .00779189071428519 .00681786692997163 -.001586408057594 .
00832207338556793 .00682229662692053 -.001567248778691095 .00880951965270094 .00
686260315537108 -.001380100696286642 .00921539696120385 .00692222433711185 -.001
040581677090464 .00949257859501458 .00697623041923758 -.000576375864956437 .0095
9927971064743 .00699983539755675 -480042405574211e-19 .00952808985545784 .006983
91427541555 .000474279868481536 .00929333078981776 .00693633221031768 .000941963
623559548 .0089122886040956 .00687548329189757 .001314431246903916 .008421187104
75288 .00682769350346148 .00154356775775797 .008 .00681469001496033 .00160000000
0000025 41 1 33 H?.008 .00681469001496033 .001600000000000025 41 1 34 H?.008 .00
681469001496033 .001600000000000025 204 80 35 4 1.34018631550878 .195 0 .0148146
9001496032 1.352999578743992 .1955217130826265 5.95104122278085 .014834631265882
86 1.38962492532982 .195984474072157 5.6204235279352 .01488543311627886 1.446654
762510734 .1963448888355565 5.28487743087974 .0149461302881536 1.518206688839625
 .196557114978247 4.94443956344974 .01499032238566152 1.59442821767578 .19659142
7110072 4.60882404570257 .01499804545903152 1.666731924936955 .1964527228021645
 4.279962990166195 .0149678119621534 1.729367912181275 .1961568016478925 3.94972
914308097 .01491217694019526 1.775968347618445 .195725326783691 3.61208954245437
5 .01485318166570384 1.79941229720413 .195208109285715 3.272030521761185 .014817
86692997162 1.79660305430571 .194677926614432 2.93891196615709 .0148222966269205
2 1.769253724768285 .194190480347299 2.611109926147245 .01486260315537108 1.7200
038680028 .193784603038796 2.2788592557398 .01492222433711184 1.65322906157281 .
1935074214049855 1.93931603054702 .01497623041923758 1.577654129198945 .19340072
02893525 1.600803480160345 .01499983539755674 1.502990113237435 .193471910144542
 1.269849180068232 .01498391427541554 1.43582062692426 .1937066692101825 .941312
911468484 .01493633221031768 1.38189905926225 .1940877113959045 .606725404247411
 .01487548329189756 1.348459344968684 .194578812895247 .266381134496174 .0148276
9350346148 1.34018631550878 .195 0 .01481469001496032 141 30 21 161 161 20 141 1
61 31 30 30 20 74 4 CI16 index_map_offset0 0 1 dCCZ20 26 5 0 0 140 24 17 135 138
 0 0 0 0 0 0 0 0 0 0 0 0 0 0 0 80 1 6 154 162 8038 0 0 0 0 0 0 0 0 0 TTTTTTTTTTT
TTFTF10 98 255 11 25 73 109 112 111 114 116 101 100 32 48 49 79 14 162 SDL/TYSA_
UNAME74 20 15 2 0 0 13 10 0 0 0 0 0 0 0 0 0 0 0 0 0 0 0 0 0 0 81 1 13 1 154 4 0
 10 0 0 163 84 10 163 Leg.SLDPRT98 10 14 76 101 103 46 83 76 68 80 82 84 74 20 9
 2 0 0 7 2 0 0 0 0 0 0 0 0 0 0 0 0 0 0 0 0 0 0 81 1 7 1 154 1 0 2 0 0 164 84 4 1
64 root98 4 8 114 111 111 116 1 0 
